if (_typeface_js && _typeface_js.loadFace) _typeface_js.loadFace({"glyphs":{"S":{"x_min":22,"x_max":420,"ha":398,"o":"m 420 147 q 355 32 420 94 q 238 -29 290 -29 q 91 30 134 -29 q 55 193 55 82 q 61 250 55 239 q 103 286 67 262 l 138 278 q 150 233 150 240 q 144 196 150 221 q 138 158 138 171 q 223 38 138 38 q 297 78 264 38 q 330 161 330 119 q 249 305 330 232 q 175 369 225 328 q 101 433 126 411 q 22 579 22 507 q 76 738 22 647 q 184 870 125 820 q 291 909 200 884 q 327 894 308 897 q 350 806 350 841 q 337 705 350 766 q 294 625 321 625 q 256 637 273 625 q 240 670 240 649 q 253 735 240 690 q 266 801 266 780 l 259 829 l 252 829 q 204 783 237 829 q 162 716 170 738 q 128 661 147 706 q 110 595 110 616 q 189 459 110 529 q 339 333 223 430 q 420 147 420 248 "},"/":{"x_min":26.828125,"x_max":339,"ha":331,"o":"m 339 852 q 236 399 339 721 q 133 -69 133 76 q 138 -97 133 -91 l 138 -106 q 72 -147 109 -147 q 26 -108 51 -147 q 47 -58 33 -94 q 94 163 67 7 q 195 617 135 391 q 243 848 233 759 q 292 894 248 894 q 339 852 339 894 "},"y":{"x_min":36.3125,"x_max":500.890625,"ha":467,"o":"m 500 858 q 415 612 495 839 q 342 362 361 462 q 335 290 345 341 q 355 0 355 180 q 322 -48 355 -23 q 288 -50 301 -45 q 250 -15 259 -41 q 250 38 250 24 l 250 245 q 36 814 250 294 l 40 839 q 88 858 73 858 q 127 837 119 858 q 137 788 130 820 q 277 459 166 655 q 392 842 392 748 q 409 882 392 866 q 450 898 427 898 q 500 858 485 898 "},"Á":{"x_min":20,"x_max":544.5,"ha":536,"o":"m 544 14 q 524 -21 544 -6 q 483 -37 504 -37 l 462 -32 l 439 -1 l 441 15 q 416 182 445 62 l 376 352 l 326 352 q 200 340 272 352 q 177 190 177 326 q 177 28 177 89 q 159 -6 177 8 q 120 -21 141 -21 q 69 22 69 -21 q 89 166 69 71 q 110 311 110 262 l 107 328 q 88 325 101 330 q 70 321 74 321 q 35 335 50 321 q 20 371 20 350 q 119 402 50 402 q 176 664 125 410 q 226 930 227 918 l 243 951 l 299 969 q 347 940 335 958 q 359 880 359 922 q 450 437 359 847 l 488 448 l 522 438 q 536 395 536 416 l 531 378 q 480 352 514 356 l 465 356 l 464 346 q 504 174 464 300 q 544 14 544 47 m 362 422 l 362 436 q 285 787 362 502 q 241 594 276 759 q 207 411 207 429 q 223 410 213 411 l 238 410 q 362 422 266 410 m 477 1311 q 408 1207 454 1276 q 357 1114 383 1159 q 298 1046 319 1046 q 262 1055 292 1046 l 255 1070 q 393 1341 283 1163 q 431 1350 411 1350 q 461 1343 426 1350 q 477 1311 469 1333 "},"g":{"x_min":33,"x_max":515.71875,"ha":482,"o":"m 515 537 q 457 492 515 512 q 400 456 400 472 q 420 261 400 391 q 441 65 441 130 l 441 -62 q 370 -111 441 -111 q 174 23 306 -111 q 33 275 33 169 q 275 813 33 552 q 400 904 358 904 q 421 885 409 904 q 433 855 433 866 q 409 817 433 837 q 254 662 363 824 q 152 484 174 543 q 121 286 121 405 q 193 113 121 190 q 346 -5 224 80 l 353 59 q 340 236 353 129 q 309 409 327 358 l 301 411 q 236 375 252 375 q 191 405 201 375 q 322 511 205 434 q 472 595 432 583 q 515 537 515 572 "},"ë":{"x_min":18,"x_max":533,"ha":502,"o":"m 533 469 q 513 430 533 449 q 475 405 494 410 q 392 433 414 433 l 223 433 l 223 405 q 261 180 223 326 q 364 8 307 8 q 403 89 391 8 q 412 202 412 142 q 403 247 412 217 q 395 291 395 277 q 418 337 395 299 l 438 341 l 445 348 q 456 347 451 347 q 473 351 464 347 q 506 292 506 326 q 485 83 506 187 q 395 -71 455 -65 l 384 -80 q 277 -46 350 -76 q 148 419 148 121 q 74 459 74 438 l 78 476 q 138 512 101 485 l 138 533 q 148 641 138 565 q 148 749 148 710 l 148 781 l 124 784 q 104 776 119 784 q 80 769 89 769 q 71 770 75 769 l 61 763 l 46 766 l 18 804 l 18 816 q 67 843 39 824 l 85 841 q 149 853 89 841 l 169 873 l 217 878 q 260 864 232 864 q 324 873 282 864 q 387 883 365 883 l 405 876 q 423 855 407 870 q 440 830 440 839 l 424 800 q 359 800 402 800 q 293 800 316 800 q 228 788 241 800 q 228 567 228 601 l 228 506 q 417 502 274 502 q 489 522 437 502 q 518 503 504 522 q 533 469 533 485 m 382 1006 q 362 964 382 981 q 319 948 343 948 q 266 986 286 948 q 253 1030 253 1010 q 271 1062 253 1046 q 305 1079 289 1079 q 356 1056 331 1079 q 382 1006 382 1033 m 219 1031 q 152 959 219 959 q 115 986 134 959 q 96 1032 96 1013 q 145 1087 96 1073 q 163 1094 169 1094 q 186 1081 172 1094 q 208 1062 197 1080 q 219 1031 219 1044 "},"Î":{"x_min":-14,"x_max":234,"ha":189,"o":"m 187 49 q 160 9 187 33 l 147 10 l 129 4 q 87 120 87 4 q 87 185 87 142 q 87 251 87 229 l 87 376 q 76 592 87 448 q 65 809 65 737 l 69 822 l 87 836 q 104 840 92 836 q 125 844 117 844 q 167 802 160 844 l 167 740 q 167 508 167 662 q 167 277 167 355 l 167 165 q 177 107 167 145 q 187 49 187 69 m 234 908 q 192 872 234 872 q 138 923 168 872 q 92 996 100 989 q 67 920 87 987 q 10 883 57 883 q -14 910 -14 883 q 11 1013 -14 935 q 52 1113 37 1091 q 94 1135 68 1135 q 130 1120 113 1135 q 147 1088 147 1106 q 234 908 234 917 "},"e":{"x_min":18,"x_max":532,"ha":501,"o":"m 532 469 q 513 430 532 449 q 475 405 494 410 q 391 433 413 433 l 222 433 l 222 405 q 260 180 222 326 q 363 8 306 8 q 402 89 390 8 q 411 202 411 141 q 402 247 411 217 q 394 291 394 277 q 417 337 394 299 l 438 341 l 445 348 q 456 347 450 347 q 472 351 464 347 q 505 292 505 326 q 484 83 505 187 q 394 -71 454 -65 l 383 -80 q 276 -46 349 -76 q 147 419 147 121 q 74 459 74 438 l 78 476 q 137 512 101 485 l 137 533 q 147 641 137 565 q 147 749 147 710 l 147 781 l 123 784 q 103 776 118 784 q 80 769 88 769 q 71 770 75 769 l 61 763 l 46 766 l 18 804 l 18 816 q 67 843 39 824 l 84 841 q 148 853 88 841 l 168 873 l 216 878 q 259 864 231 864 q 323 873 281 864 q 386 883 364 883 l 404 876 q 423 855 406 870 q 440 830 440 839 l 423 800 q 358 800 401 800 q 291 800 315 800 q 227 788 240 800 q 227 567 227 601 l 227 506 q 417 502 273 502 q 488 522 437 502 q 517 503 503 522 q 532 469 532 485 "},"Ã":{"x_min":20,"x_max":544.5,"ha":536,"o":"m 544 14 q 524 -21 544 -6 q 482 -37 504 -37 l 462 -32 l 439 -1 l 441 15 q 416 182 445 62 l 376 352 l 326 352 q 200 340 272 352 q 177 190 177 326 q 177 28 177 89 q 159 -6 177 8 q 120 -21 141 -21 q 69 22 69 -21 q 89 166 69 71 q 110 311 110 262 l 107 328 q 88 325 101 330 q 70 321 74 321 q 35 335 50 321 q 20 371 20 350 q 119 402 50 402 q 176 664 124 410 q 226 930 227 918 l 243 951 l 299 969 q 347 940 335 958 q 359 880 359 922 q 450 437 359 847 l 488 448 l 522 438 q 536 395 536 416 l 531 378 q 480 352 514 356 l 465 356 l 464 346 q 504 174 464 300 q 544 14 544 47 m 362 422 l 362 436 q 285 787 362 502 q 241 594 276 759 q 207 411 207 429 q 223 410 213 411 l 238 410 q 362 422 266 410 m 484 1207 q 481 1168 484 1194 q 479 1130 479 1143 q 454 1047 479 1076 q 382 998 435 1022 q 367 1001 374 1001 q 359 1000 363 1001 q 297 1048 326 1000 q 257 1122 289 1061 q 239 1068 253 1116 q 187 1039 231 1039 q 160 1087 160 1039 q 187 1173 160 1123 q 251 1229 218 1229 q 261 1228 254 1229 l 270 1228 q 331 1162 307 1215 q 379 1084 360 1100 q 401 1157 394 1095 q 415 1241 409 1229 q 446 1258 419 1249 q 479 1238 457 1253 q 484 1207 484 1209 "},"J":{"x_min":48,"x_max":448,"ha":445,"o":"m 448 807 q 397 760 448 791 l 381 769 l 359 769 l 353 762 l 353 744 l 374 673 q 414 340 414 544 q 388 111 414 223 q 273 -51 351 -51 q 53 264 141 -51 q 90 307 71 296 q 110 302 101 302 q 118 303 114 302 q 150 268 138 288 l 150 236 q 189 122 150 188 q 270 32 226 61 q 326 325 326 111 q 308 540 326 416 q 255 744 287 684 q 167 705 234 740 q 95 671 99 671 q 64 681 80 671 q 48 708 48 692 q 190 798 48 756 q 370 851 250 816 q 414 851 396 851 l 435 837 l 448 807 "},"‐":{"x_min":65,"x_max":494,"ha":495,"o":"m 494 423 q 475 389 494 404 q 438 375 457 375 q 410 381 427 375 q 386 390 394 388 q 327 393 378 393 q 266 390 277 393 q 201 393 242 393 q 135 393 160 393 q 65 434 65 393 q 92 472 65 448 q 385 472 356 472 q 413 474 397 472 q 432 471 434 471 q 447 474 420 471 q 477 456 461 476 q 494 423 494 437 "},"©":{"x_min":73,"x_max":849,"ha":838,"o":"m 849 426 q 727 116 849 240 q 424 -7 606 -7 q 171 86 269 -7 q 73 337 73 179 q 370 709 73 565 q 497 774 493 769 q 517 769 508 769 q 527 770 523 769 q 564 739 564 758 q 635 719 584 728 q 707 695 685 709 q 808 578 767 658 q 849 426 849 499 m 762 414 q 721 571 762 500 q 598 665 674 653 q 497 678 569 669 l 452 690 q 381 658 437 690 q 312 613 331 628 q 157 331 157 487 q 232 135 157 208 q 429 62 308 62 q 670 162 578 62 q 762 414 762 262 m 615 288 q 490 243 602 243 q 380 274 432 243 q 319 366 319 311 q 383 481 319 420 q 500 541 447 541 q 531 535 508 541 q 551 505 540 520 q 530 477 551 493 q 498 462 509 462 q 474 466 468 466 q 432 427 459 466 q 405 371 405 389 q 407 349 405 381 q 525 304 443 304 q 550 308 534 304 q 573 313 566 313 q 585 311 577 313 q 598 310 594 310 q 615 288 604 304 "},"ò":{"x_min":35,"x_max":514,"ha":515,"o":"m 514 385 q 452 103 514 244 q 258 -71 376 -71 q 77 102 137 -71 q 35 378 35 226 q 108 804 35 625 q 119 850 113 828 q 148 872 128 878 l 171 883 l 218 871 q 271 878 229 878 q 466 685 401 878 q 514 385 514 546 m 426 398 q 391 648 426 536 q 239 809 342 809 q 146 639 182 809 q 120 416 120 514 l 120 320 q 157 128 120 227 q 277 4 203 4 q 390 169 344 4 q 426 398 426 296 m 299 980 l 295 967 q 258 956 261 956 q 184 1042 236 956 q 124 1148 154 1094 q 77 1221 77 1211 q 94 1253 77 1228 q 124 1260 130 1260 l 161 1251 q 299 980 265 1090 "},"^":{"x_min":35,"x_max":393.328125,"ha":376,"o":"m 393 469 q 379 445 386 455 q 349 443 359 443 q 314 448 357 443 q 193 684 259 563 q 156 572 174 628 q 132 456 136 506 q 114 413 132 441 l 55 406 q 35 437 35 416 q 49 477 35 434 q 129 802 129 705 q 144 820 129 811 q 171 830 160 830 q 228 778 208 830 q 315 620 242 746 q 393 469 382 508 "},"D":{"x_min":27,"x_max":389,"ha":375,"o":"m 389 534 q 278 182 389 365 q 180 21 278 182 l 168 -6 l 114 -22 q 73 -3 89 -22 q 58 41 58 15 q 60 58 58 44 q 62 79 62 72 q 62 362 62 173 q 62 644 62 550 q 41 754 62 691 l 27 815 q 45 845 27 834 q 81 857 60 857 q 140 827 96 857 q 230 793 157 816 q 371 646 337 758 q 389 534 389 587 m 302 516 q 280 654 302 605 q 180 746 252 719 q 138 760 142 760 q 134 740 134 753 q 157 125 134 322 q 255 311 209 186 q 302 516 302 436 "},"ÿ":{"x_min":36.78125,"x_max":501.078125,"ha":467,"o":"m 501 859 q 415 613 495 840 q 342 363 361 463 q 336 291 345 342 q 355 0 355 181 q 322 -47 355 -22 q 288 -49 302 -44 q 250 -14 259 -40 q 250 39 250 25 l 250 246 q 36 815 250 295 l 40 840 q 88 859 73 859 q 128 838 119 859 q 137 789 130 821 q 278 460 167 656 q 392 843 392 749 q 409 883 392 867 q 450 899 427 899 q 501 859 486 899 m 399 979 q 379 937 399 954 q 336 921 360 921 q 283 959 303 921 q 270 1003 270 983 q 288 1035 270 1019 q 322 1052 306 1052 q 373 1029 348 1052 q 399 979 399 1006 m 236 1004 q 169 932 236 932 q 132 959 151 932 q 113 1005 113 986 q 162 1060 113 1046 q 179 1067 186 1067 q 203 1054 189 1067 q 225 1035 214 1053 q 236 1004 236 1017 "},"í":{"x_min":88,"x_max":314.171875,"ha":216,"o":"m 208 786 q 201 733 208 768 l 190 679 q 181 440 181 613 l 181 180 q 187 110 181 157 q 193 40 193 63 q 176 3 193 18 q 137 -11 160 -11 q 103 1 119 -11 q 88 32 88 14 q 115 798 88 576 l 168 825 q 195 813 183 825 q 208 786 208 801 m 314 1179 q 244 1075 291 1144 q 194 982 220 1027 q 134 914 156 914 q 98 923 128 914 l 92 938 q 229 1209 119 1031 q 267 1218 247 1218 q 297 1211 262 1218 q 314 1179 306 1201 "},"ˆ":{"x_min":57,"x_max":305,"ha":306,"o":"m 305 636 q 264 600 305 600 q 209 651 239 600 q 163 724 171 718 q 138 648 157 715 q 81 611 127 611 q 57 638 57 611 q 82 741 57 663 q 123 841 108 819 q 165 864 139 864 q 201 849 184 864 q 218 816 218 834 q 305 636 305 645 "},"w":{"x_min":41,"x_max":728.921875,"ha":719,"o":"m 728 823 q 705 757 717 797 q 609 38 609 263 q 615 15 609 30 q 622 -2 622 0 q 573 -65 622 -31 q 527 -56 558 -65 q 341 575 381 358 l 340 577 q 281 254 340 575 q 213 -32 235 -5 l 171 -39 q 147 -27 163 -39 q 126 -9 130 -16 q 74 337 110 16 q 41 719 41 641 q 46 833 41 769 q 89 875 69 875 q 136 786 136 875 q 132 725 136 765 q 128 665 128 684 q 181 202 128 547 l 185 201 q 246 515 208 273 q 285 836 285 753 l 310 867 l 321 867 l 333 878 q 388 851 381 865 q 390 790 390 846 q 445 497 390 701 q 540 209 497 305 l 545 212 q 584 521 545 256 l 622 785 q 615 843 614 836 q 672 878 638 878 q 709 859 689 878 q 728 823 728 840 "},"$":{"x_min":49,"x_max":425,"ha":418,"o":"m 302 166 q 293 15 302 95 q 253 -21 289 -21 q 203 35 203 -21 q 206 73 203 48 q 209 110 209 98 q 200 159 209 137 l 187 161 l 179 156 q 159 162 168 162 q 141 162 153 163 q 122 161 130 161 q 75 196 75 161 q 98 231 75 214 q 140 248 121 248 q 183 235 149 248 q 235 223 217 223 q 303 243 273 223 q 334 302 334 264 q 250 353 314 331 q 146 371 185 375 q 84 404 137 381 q 49 465 49 420 q 118 553 49 495 q 209 628 150 581 q 230 701 221 638 l 230 786 q 277 808 244 795 q 309 797 298 803 l 325 764 q 316 663 316 671 q 362 643 331 657 q 393 613 393 629 q 310 589 393 579 q 216 547 263 568 q 155 471 155 513 q 186 449 155 457 q 228 442 209 442 q 346 399 273 442 q 425 313 425 353 q 302 166 425 223 "},"\\":{"x_min":27,"x_max":339.171875,"ha":316,"o":"m 27 852 q 130 399 27 721 q 233 -69 233 76 q 227 -97 233 -91 l 227 -106 q 292 -147 255 -147 q 339 -108 314 -147 q 318 -58 332 -94 q 271 163 298 7 q 169 617 230 391 q 122 848 131 759 q 73 894 116 894 q 27 852 27 894 "},"Ì":{"x_min":-67,"x_max":187.40625,"ha":189,"o":"m 187 49 q 160 9 187 33 l 146 10 l 129 4 q 87 120 87 4 q 87 185 87 142 q 87 251 87 229 l 87 376 q 76 592 87 448 q 65 809 65 737 l 69 822 l 87 836 q 104 840 92 836 q 124 844 116 844 q 167 802 160 844 l 167 740 q 167 508 167 662 q 167 277 167 355 l 167 165 q 177 107 167 145 q 187 49 187 69 m 154 940 l 150 927 q 114 916 116 916 q 40 1002 92 916 q -19 1108 10 1054 q -67 1181 -67 1171 q -49 1213 -67 1188 q -19 1220 -13 1220 l 17 1211 q 154 940 120 1050 "},"µ":{"x_min":43.53125,"x_max":605,"ha":576,"o":"m 605 167 q 498 -20 605 -20 q 418 38 458 -20 q 371 131 406 57 q 336 63 359 107 q 280 20 314 20 q 194 51 224 20 q 138 135 185 61 l 138 49 l 138 -46 q 142 -61 138 -52 q 147 -74 147 -70 q 127 -114 147 -99 q 82 -130 108 -130 l 58 -120 q 51 -36 51 -103 l 58 290 q 55 421 58 285 q 43 458 43 437 q 67 501 43 482 q 116 520 92 520 q 165 489 154 520 q 200 257 174 401 q 265 110 235 124 q 328 443 328 178 q 341 484 328 466 q 376 503 355 503 l 406 497 q 425 471 416 483 q 431 440 431 461 q 440 249 431 315 q 500 71 455 144 q 521 154 513 75 q 562 227 521 227 q 605 167 605 227 "},"Ç":{"x_min":49,"x_max":373,"ha":335,"o":"m 373 -194 q 341 -243 373 -217 q 286 -269 310 -269 q 269 -276 283 -269 l 256 -282 l 223 -282 q 163 -240 189 -282 q 182 -211 172 -218 l 192 -211 q 214 -221 197 -211 q 239 -231 230 -231 q 285 -197 285 -231 q 243 -169 285 -173 q 177 -130 194 -165 q 180 -102 180 -122 q 177 -58 180 -87 q 174 -13 174 -29 q 193 10 174 -1 l 194 10 q 78 154 111 79 q 49 337 49 225 q 126 636 49 455 q 299 873 211 833 q 353 841 353 866 l 346 812 q 199 594 268 758 q 134 333 134 440 q 252 64 134 130 q 297 48 275 55 q 324 14 324 36 q 307 -25 324 2 l 279 -39 q 263 -37 271 -39 l 263 -43 q 271 -79 263 -68 q 307 -104 274 -86 q 350 -131 341 -123 q 373 -194 373 -155 "},"-":{"x_min":65,"x_max":494,"ha":495,"o":"m 494 423 q 475 389 494 404 q 438 375 457 375 q 410 381 427 375 q 386 390 394 388 q 327 393 378 393 q 266 390 277 393 q 201 393 242 393 q 135 393 160 393 q 65 434 65 393 q 92 472 65 448 q 385 472 356 472 q 413 474 397 472 q 432 471 434 471 q 447 474 420 471 q 477 456 461 476 q 494 423 494 437 "},"Q":{"x_min":48,"x_max":470,"ha":459,"o":"m 470 -111 q 407 -164 470 -164 q 359 -100 392 -164 l 314 -14 l 309 -14 q 231 -34 316 -14 q 73 112 111 13 q 48 340 48 180 q 77 617 48 451 q 167 857 116 826 q 225 871 185 855 q 280 887 264 887 q 343 826 290 887 q 403 748 392 767 q 453 399 453 660 q 378 56 453 234 q 423 -22 376 51 q 470 -111 470 -95 m 368 417 q 355 616 368 552 q 268 788 333 728 q 238 804 252 804 q 159 598 193 804 q 133 344 133 440 q 252 47 133 47 q 276 58 268 47 q 190 230 249 117 q 233 269 219 269 q 294 228 269 269 q 328 155 312 191 q 368 417 368 274 "},"M":{"x_min":57,"x_max":559.484375,"ha":535,"o":"m 559 53 q 535 25 556 45 q 507 5 514 5 q 467 26 483 5 q 451 74 451 48 q 427 578 451 302 q 384 479 412 563 q 355 370 355 395 q 343 331 355 345 q 310 307 337 325 q 271 317 288 314 q 143 643 243 348 l 134 647 l 139 634 q 139 152 139 478 q 149 61 139 123 q 160 -33 160 0 q 143 -65 160 -48 q 110 -82 125 -82 q 67 -53 76 -82 q 57 5 57 -46 l 57 885 l 92 895 l 119 886 q 152 839 125 874 q 222 675 164 824 l 292 492 l 296 491 q 396 818 396 732 q 422 849 396 832 q 463 866 448 866 l 484 857 q 520 503 520 816 q 536 120 520 157 q 559 53 545 98 "},"C":{"x_min":49,"x_max":353,"ha":335,"o":"m 353 841 l 346 812 q 198 594 268 757 q 134 333 134 439 q 251 63 134 130 q 296 48 274 55 q 324 13 324 35 q 307 -25 324 2 l 279 -39 q 238 -25 255 -39 q 205 1 221 -12 q 83 146 117 72 q 49 337 49 220 q 126 635 49 455 q 299 873 211 832 q 353 841 353 866 "},"!":{"x_min":75.1875,"x_max":199,"ha":206,"o":"m 187 210 q 166 174 189 207 q 132 162 140 162 q 96 178 111 162 q 82 216 82 195 q 91 257 82 228 q 99 493 99 313 q 75 832 99 714 q 103 860 96 857 l 138 860 q 170 816 165 847 q 172 758 172 808 q 176 689 172 735 q 181 619 181 643 l 181 429 q 181 347 181 402 q 181 264 181 292 l 187 210 m 199 59 q 151 8 199 34 q 121 20 140 8 l 110 20 q 86 55 87 52 q 104 105 86 81 q 148 129 122 129 q 185 106 171 129 q 199 59 199 84 "},"ç":{"x_min":35,"x_max":404,"ha":377,"o":"m 404 -194 q 372 -243 404 -217 q 317 -269 341 -269 q 300 -276 314 -269 l 287 -282 l 254 -282 q 194 -240 220 -282 q 213 -211 203 -218 l 223 -211 q 245 -221 228 -211 q 270 -231 261 -231 q 316 -197 316 -231 q 274 -169 316 -173 q 208 -130 225 -165 q 211 -102 211 -122 q 208 -58 211 -87 q 205 -13 205 -29 q 215 2 205 -5 q 86 122 134 48 q 35 290 35 201 q 186 733 35 578 q 259 792 210 758 q 341 833 316 833 q 379 828 348 833 l 393 803 q 311 742 393 773 q 122 308 122 613 q 176 138 122 212 q 321 37 231 63 q 371 30 345 33 q 404 -5 404 20 q 363 -65 404 -38 l 352 -61 l 344 -62 q 300 -43 328 -59 l 294 -38 l 294 -43 q 302 -79 294 -68 q 338 -104 305 -86 q 380 -131 372 -123 q 404 -194 404 -155 "},"È":{"x_min":16,"x_max":431,"ha":409,"o":"m 431 870 q 414 834 431 864 q 259 795 363 824 l 252 797 q 177 777 206 797 q 160 516 160 613 l 165 502 l 194 502 q 323 519 237 502 l 330 527 l 357 537 q 389 514 375 533 q 404 477 404 495 q 361 432 404 432 q 333 432 352 432 q 304 433 313 433 q 165 433 301 433 l 159 398 q 179 184 159 288 q 270 32 209 32 q 296 141 296 52 q 292 216 296 166 q 288 290 288 265 q 305 345 288 333 q 363 358 318 354 q 389 311 389 344 q 380 98 389 152 q 278 -50 357 -50 q 73 405 73 -50 q 16 435 53 408 l 16 451 q 36 482 16 469 q 73 503 55 492 q 84 605 74 520 q 91 712 91 670 q 89 749 91 733 q 35 803 35 767 q 161 878 35 842 l 188 858 l 195 858 q 382 909 259 880 q 431 870 431 891 m 277 958 l 273 945 q 236 934 238 934 q 162 1020 214 934 q 103 1126 133 1072 q 55 1199 55 1189 q 73 1231 55 1206 q 103 1238 108 1238 l 139 1229 q 277 958 243 1068 "},"{":{"x_min":30,"x_max":310.546875,"ha":290,"o":"m 310 967 q 257 918 291 918 q 205 859 229 902 q 181 781 181 816 q 202 679 181 747 q 224 576 224 611 q 204 491 224 534 q 151 425 184 444 q 178 390 155 405 q 196 340 194 346 q 173 210 196 296 q 150 79 150 124 q 171 13 150 51 q 221 -30 195 -30 q 237 -25 229 -30 l 267 -52 q 243 -81 267 -68 q 201 -94 220 -94 q 102 -38 144 -94 q 63 74 63 12 q 84 194 63 115 q 105 315 105 273 l 102 343 l 64 382 q 30 429 30 390 q 56 461 30 446 q 106 496 96 483 q 134 572 134 525 q 115 684 134 609 q 96 795 96 758 q 148 926 96 856 q 257 997 200 997 q 310 967 299 997 "},"X":{"x_min":37,"x_max":523.140625,"ha":488,"o":"m 523 -15 q 459 -65 501 -65 q 419 -38 445 -65 q 363 119 412 9 q 285 270 318 220 q 234 66 234 126 q 238 48 234 52 q 220 2 238 19 q 184 -11 190 -11 q 151 0 167 -11 q 135 25 135 9 q 182 208 135 82 q 229 384 229 334 q 133 588 229 394 q 37 816 37 781 l 38 824 l 96 840 q 177 687 111 835 q 266 505 247 527 q 316 676 280 545 q 353 840 353 815 q 400 867 353 853 l 431 858 l 441 828 q 380 613 412 741 l 369 569 q 322 397 335 438 q 427 193 331 380 q 523 -15 487 76 "},"ô":{"x_min":35,"x_max":514,"ha":515,"o":"m 514 385 q 452 103 514 244 q 258 -71 376 -71 q 77 102 137 -71 q 35 378 35 226 q 108 804 35 625 q 119 850 113 828 q 148 872 128 878 l 171 884 l 218 871 q 272 878 229 878 q 466 685 401 878 q 514 385 514 546 m 426 398 q 391 648 426 536 q 239 809 342 809 q 146 639 182 809 q 120 416 120 514 l 120 320 q 157 128 120 227 q 277 4 203 4 q 390 169 344 4 q 426 398 426 296 m 381 972 q 340 936 381 936 q 285 987 315 936 q 239 1060 247 1053 q 214 984 233 1050 q 157 947 203 947 q 133 974 133 947 q 158 1077 133 999 q 199 1176 184 1154 q 241 1199 215 1199 q 277 1184 260 1199 q 294 1152 294 1170 q 381 972 381 981 "},"¼":{"x_min":49,"x_max":686,"ha":667,"o":"m 191 482 q 177 453 185 472 q 137 435 141 436 q 100 446 118 435 q 78 475 82 458 q 78 566 78 507 q 60 643 73 583 q 49 718 49 691 l 54 740 q 90 754 66 744 q 125 744 102 750 q 144 677 144 715 q 170 526 144 626 q 181 507 171 521 q 191 482 191 494 m 686 279 q 669 101 686 236 q 638 -65 651 -47 q 598 -71 593 -71 q 577 -8 577 -71 q 577 32 577 5 q 577 72 577 58 l 571 78 q 545 78 563 78 q 520 78 528 78 q 414 137 414 78 q 460 280 414 145 q 496 296 480 296 q 507 294 501 296 q 518 293 514 293 q 538 252 538 280 q 527 213 538 243 q 516 165 516 183 q 582 149 535 149 l 588 154 q 588 258 588 207 q 642 324 596 324 q 671 308 656 324 q 686 279 686 293 m 484 736 q 312 200 346 330 q 246 -75 292 114 q 195 -108 238 -108 q 148 -59 148 -108 q 263 315 163 -38 q 396 748 366 683 q 420 776 408 776 q 471 765 426 776 l 484 736 "},"#":{"x_min":18,"x_max":597,"ha":577,"o":"m 597 540 q 581 499 597 523 q 550 495 570 492 q 519 497 524 497 l 493 497 l 485 486 q 478 414 485 479 q 475 343 472 364 l 478 319 l 509 325 q 540 302 524 325 q 557 265 557 280 q 498 222 557 222 q 472 224 485 222 q 463 91 463 173 q 475 -2 463 37 q 406 -40 465 -40 q 368 12 368 -40 q 375 117 368 47 q 383 222 383 187 q 376 236 383 231 q 243 213 266 223 q 214 154 214 201 q 214 75 214 128 q 214 -3 214 22 q 190 -28 214 -12 q 157 -44 166 -44 q 129 -23 146 -44 q 112 8 112 -3 q 123 100 112 39 q 135 192 135 161 l 133 204 l 75 199 q 21 237 21 199 q 94 278 21 278 q 141 286 109 278 q 150 390 150 372 l 147 416 q 83 395 143 416 q 61 403 75 402 l 33 406 q 18 443 18 436 l 30 471 l 56 487 q 99 486 45 486 l 152 494 q 165 722 165 598 q 166 787 165 777 q 215 818 174 818 q 257 763 257 818 l 251 734 q 251 638 251 722 q 251 531 251 563 l 251 517 l 251 513 q 328 527 276 517 q 400 553 380 537 l 414 709 q 440 863 422 801 l 485 879 q 523 844 523 879 q 505 722 523 806 q 489 599 489 642 l 489 578 l 514 590 l 528 587 l 547 599 q 583 576 574 584 q 597 540 597 563 m 394 449 l 394 469 q 314 455 354 462 q 240 431 270 446 q 231 296 231 326 q 244 292 239 292 q 385 312 316 292 q 394 449 395 437 "},"Ê":{"x_min":16,"x_max":431,"ha":409,"o":"m 431 870 q 414 834 431 864 q 259 795 363 824 l 252 797 q 177 777 206 797 q 160 516 160 613 l 165 502 l 194 502 q 323 519 237 502 l 330 527 l 357 537 q 389 514 375 533 q 404 477 404 495 q 361 432 404 432 q 332 432 352 432 q 304 433 313 433 q 165 433 301 433 l 159 398 q 179 184 159 288 q 270 32 209 32 q 296 141 296 52 q 292 216 296 166 q 288 290 288 265 q 305 345 288 333 q 363 358 317 354 q 389 311 389 344 q 380 98 389 152 q 278 -50 357 -50 q 73 405 73 -50 q 16 435 54 408 l 16 451 q 36 482 16 469 q 73 503 55 492 q 84 605 74 520 q 91 712 91 670 q 89 749 91 733 q 35 803 35 767 q 161 878 35 842 l 188 858 l 195 858 q 382 909 259 880 q 431 870 431 891 m 348 980 q 307 944 348 944 q 252 995 282 944 q 206 1068 214 1062 q 181 992 200 1059 q 124 955 170 955 q 100 982 100 955 q 125 1085 100 1007 q 166 1185 151 1163 q 208 1208 182 1208 q 244 1193 227 1208 q 261 1160 261 1178 q 348 980 348 989 "},")":{"x_min":64,"x_max":320,"ha":324,"o":"m 320 341 q 276 107 320 240 l 203 -118 q 152 -137 171 -137 q 116 -121 132 -137 q 101 -85 101 -106 q 120 -49 101 -75 q 147 -13 136 -27 q 203 153 174 33 q 233 332 233 272 q 202 578 233 440 q 125 816 171 716 q 64 937 120 827 q 96 982 64 957 l 124 982 q 261 685 196 934 q 320 341 320 463 "},"Å":{"x_min":37,"x_max":536.75,"ha":501,"o":"m 536 -7 q 518 -41 536 -23 q 486 -59 501 -59 q 427 11 450 -59 q 397 148 420 32 q 364 242 380 229 l 349 242 q 264 222 337 242 q 182 197 191 203 q 157 -9 157 110 q 141 -36 157 -21 q 113 -51 125 -51 q 60 -7 60 -51 q 73 80 60 22 q 86 169 86 139 q 55 179 81 171 q 37 198 37 185 q 61 228 37 211 q 96 251 77 239 q 135 472 111 324 q 175 696 158 621 q 186 751 187 747 q 101 900 101 812 q 130 988 101 948 q 205 1029 159 1029 q 351 983 288 1029 q 419 850 419 931 q 378 776 419 807 q 304 734 364 765 l 304 726 q 378 507 304 733 q 425 343 393 439 q 462 322 432 335 q 489 289 489 311 q 457 246 489 275 l 457 226 q 483 131 457 219 q 514 33 509 43 l 536 -7 m 329 862 q 305 928 329 899 q 245 958 281 958 q 198 928 231 928 l 192 923 q 191 910 192 919 l 191 899 q 211 839 191 851 l 220 839 q 272 826 250 839 q 299 814 294 814 q 329 862 329 837 m 347 311 l 347 322 q 253 612 347 337 l 245 614 q 189 281 189 322 l 215 281 q 347 311 237 281 "},"ø":{"x_min":31,"x_max":530,"ha":533,"o":"m 530 387 q 467 106 530 225 q 246 -42 390 -42 l 236 -46 q 223 -208 223 -98 q 203 -230 209 -225 q 176 -242 190 -242 l 152 -244 q 128 -224 140 -242 q 117 -194 117 -207 q 138 -100 117 -173 q 153 -9 158 -33 q 46 191 73 42 q 31 433 31 273 q 84 678 31 537 q 217 878 142 836 l 231 874 l 243 878 l 322 841 q 346 912 334 877 q 416 932 356 932 l 422 912 q 412 858 422 895 q 404 806 402 821 l 404 788 q 501 600 466 730 q 530 387 530 494 m 442 385 q 424 539 442 445 q 378 682 403 648 q 250 42 338 469 q 288 36 280 36 q 408 179 363 36 q 442 385 442 285 m 307 767 q 262 784 284 784 l 254 776 l 243 776 q 150 641 184 724 q 116 476 116 558 l 116 370 q 130 222 116 312 q 171 85 146 110 q 307 767 180 129 "},"â":{"x_min":27,"x_max":589,"ha":580,"o":"m 589 314 l 576 284 q 528 253 549 272 l 521 255 q 516 242 516 255 q 550 109 516 199 q 585 -21 585 20 q 570 -59 585 -42 q 536 -77 556 -77 q 475 30 475 -77 q 450 151 475 48 q 418 261 425 254 l 407 261 q 303 250 368 261 q 196 237 217 237 q 167 132 182 224 q 155 19 155 60 q 110 -17 119 -17 q 74 -5 91 -17 q 57 24 57 6 q 79 114 57 50 q 101 202 101 178 l 101 223 l 73 223 q 46 239 66 223 q 27 263 27 256 q 59 301 27 289 q 114 306 84 309 l 119 316 q 165 495 141 371 q 206 678 192 633 q 252 836 252 830 q 245 928 252 867 q 268 947 253 946 q 295 954 289 951 l 333 937 q 413 647 367 836 q 490 356 462 443 q 502 352 492 352 l 522 361 q 529 359 526 359 q 539 365 534 359 q 589 314 589 353 m 404 334 q 363 521 404 354 q 310 729 330 654 q 202 308 214 430 q 303 316 240 308 l 401 328 q 404 334 402 330 m 431 1021 q 390 985 431 985 q 335 1036 365 985 q 289 1109 298 1103 q 265 1033 284 1100 q 207 996 254 996 q 183 1023 183 996 q 208 1126 183 1048 q 249 1226 234 1204 q 291 1249 265 1249 q 327 1234 310 1249 q 344 1201 344 1219 q 431 1021 431 1030 "},"}":{"x_min":65,"x_max":363,"ha":340,"o":"m 363 389 q 341 359 363 372 q 302 332 308 340 q 280 266 280 309 q 295 157 280 229 q 310 47 310 85 q 278 -52 310 -20 q 187 -99 255 -75 q 144 -89 149 -91 q 118 -57 118 -80 q 141 -34 118 -37 q 175 -37 118 -37 q 222 57 222 -37 q 206 163 222 93 q 190 269 190 233 q 211 339 190 309 q 240 389 236 376 q 172 470 206 430 q 144 576 144 512 q 177 697 144 619 q 211 813 211 774 q 172 905 211 867 q 103 949 150 926 q 65 977 65 967 q 77 1003 65 992 q 104 1015 89 1015 q 234 956 171 1015 q 298 830 298 897 q 266 704 298 786 q 234 577 234 622 q 292 444 234 489 q 363 389 363 437 "},"‰":{"x_min":12,"x_max":1053,"ha":982,"o":"m 1053 124 q 1010 42 1053 81 q 926 4 968 4 q 827 43 868 4 q 787 142 787 83 q 830 263 787 197 q 924 329 873 329 q 953 322 936 329 q 1053 124 1053 191 m 720 182 q 674 68 720 116 q 564 21 628 21 q 465 59 510 21 q 420 151 420 97 q 463 268 420 191 q 541 359 507 344 q 600 372 570 372 q 679 293 634 372 q 720 182 720 220 m 280 605 q 238 491 280 540 q 133 443 197 443 q 12 585 12 443 q 54 703 12 640 q 146 795 96 767 q 188 784 163 792 q 206 755 197 781 q 219 720 219 722 q 280 605 280 631 m 488 852 q 385 399 488 722 q 283 -69 283 76 q 288 -97 283 -91 l 288 -106 q 222 -147 259 -147 q 176 -108 200 -147 q 197 -58 183 -94 q 244 163 217 6 q 345 618 285 391 q 392 848 383 759 q 441 894 398 894 q 488 852 488 894 m 962 123 q 936 199 962 160 q 911 226 918 226 l 903 226 q 878 148 878 192 q 926 82 878 82 q 950 96 938 82 q 962 123 962 111 m 629 172 q 586 283 629 237 q 550 259 554 265 q 526 209 541 246 q 511 158 511 172 q 530 114 511 133 q 575 96 550 96 q 614 120 600 96 q 629 172 629 145 m 186 590 q 146 681 186 618 q 126 666 139 679 q 102 568 102 597 q 127 521 102 521 l 156 521 q 186 590 186 554 "},"Ä":{"x_min":20,"x_max":544.5,"ha":536,"o":"m 544 14 q 524 -21 544 -6 q 483 -37 504 -37 l 462 -32 l 439 -1 l 441 15 q 416 182 445 62 l 377 350 l 326 350 q 200 339 272 350 q 177 190 177 326 q 177 28 177 89 q 159 -6 177 8 q 120 -21 141 -21 q 69 22 69 -21 q 89 166 69 71 q 110 311 110 262 l 107 327 q 88 325 101 330 q 70 321 74 321 q 35 335 50 321 q 20 370 20 350 q 119 402 50 402 q 176 663 125 410 q 226 929 227 917 l 243 950 l 299 968 q 347 939 336 957 q 359 879 359 921 q 450 437 359 846 l 488 448 l 522 438 q 536 394 536 416 l 531 377 q 480 350 514 355 l 465 355 l 464 345 q 504 173 464 299 q 544 14 544 47 m 362 422 l 362 435 q 286 786 362 502 q 241 594 276 759 q 207 411 207 429 q 223 410 213 411 l 238 410 q 362 422 266 410 m 437 1053 q 417 1011 437 1027 q 374 995 398 995 q 321 1034 341 995 q 308 1077 308 1058 q 326 1110 308 1094 q 360 1126 344 1126 q 411 1102 386 1126 q 437 1053 437 1078 m 274 1078 q 207 1007 274 1007 q 170 1034 189 1007 q 151 1080 151 1061 q 200 1134 151 1120 q 217 1142 224 1140 q 241 1128 227 1142 q 263 1108 252 1126 q 274 1078 274 1091 "},"¸":{"x_min":60.109375,"x_max":269,"ha":251,"o":"m 269 -104 q 237 -153 269 -127 q 182 -179 206 -179 q 165 -186 179 -179 l 152 -192 l 119 -192 q 60 -150 85 -192 q 78 -121 69 -128 l 88 -121 q 110 -131 93 -121 q 135 -141 126 -141 q 181 -107 181 -141 q 140 -79 181 -83 q 73 -40 90 -75 q 76 -12 76 -32 q 73 31 76 2 q 71 75 71 60 q 89 99 71 89 q 123 110 108 110 q 155 89 147 110 q 167 10 155 59 q 203 -15 170 3 q 245 -42 237 -33 q 269 -104 269 -65 "},"a":{"x_min":27,"x_max":589,"ha":580,"o":"m 589 314 l 576 284 q 528 253 549 272 l 521 255 q 516 242 516 255 q 550 109 516 199 q 585 -21 585 20 q 570 -59 585 -42 q 536 -77 556 -77 q 475 30 475 -77 q 450 151 475 48 q 419 261 425 254 l 408 261 q 303 250 368 261 q 197 237 217 237 q 167 132 183 224 q 155 19 155 60 q 110 -17 119 -17 q 74 -5 91 -17 q 57 24 57 6 q 79 114 57 50 q 101 202 101 178 l 101 223 l 73 223 q 46 239 66 223 q 27 263 27 256 q 59 301 27 289 q 114 306 84 309 l 119 316 q 165 495 141 371 q 206 678 193 633 q 252 836 252 831 q 245 928 252 867 q 268 947 253 946 q 295 954 290 951 l 333 937 q 413 647 367 836 q 490 356 462 443 q 502 352 492 352 l 522 361 q 529 359 526 359 q 539 365 534 359 q 589 314 589 353 m 404 334 q 363 521 404 354 q 310 729 330 654 q 202 308 215 430 q 303 316 240 308 l 401 328 q 404 334 402 330 "},"=":{"x_min":90,"x_max":491,"ha":471,"o":"m 491 552 q 470 506 491 548 q 447 500 447 500 q 412 506 435 500 q 380 514 388 512 l 235 514 q 204 511 224 514 q 173 508 184 508 q 123 518 145 508 q 95 558 95 532 q 149 595 95 595 q 179 591 158 595 q 209 588 199 588 q 372 588 236 588 q 401 592 382 588 q 431 597 421 597 q 470 584 450 597 q 491 552 491 572 m 491 322 q 443 287 473 287 q 417 288 435 287 q 390 290 399 290 q 214 279 297 290 l 142 270 q 108 279 126 267 q 90 307 90 291 q 134 350 90 322 q 163 345 150 345 q 297 354 198 345 q 417 373 409 366 l 425 372 q 437 374 429 372 q 447 377 444 377 q 491 322 474 377 "},"N":{"x_min":41.859375,"x_max":471,"ha":500,"o":"m 471 774 q 471 482 471 660 l 471 185 q 468 119 471 162 q 466 57 466 76 q 452 20 466 37 q 419 3 438 3 q 371 22 385 3 q 354 72 363 33 q 150 518 313 228 l 148 514 l 148 491 q 163 245 148 409 q 179 0 179 81 q 160 -33 179 -20 q 120 -46 142 -46 q 75 -13 107 -46 q 65 45 65 27 q 65 416 65 118 q 41 767 65 745 l 47 788 q 99 802 84 802 q 134 775 127 802 q 137 725 137 750 q 265 491 198 642 l 373 244 l 380 244 q 380 779 380 298 q 415 826 380 802 q 453 812 435 826 q 471 774 471 799 "},"ú":{"x_min":71,"x_max":430,"ha":448,"o":"m 430 765 l 430 561 q 349 57 430 185 q 308 14 338 39 q 268 -23 277 -9 l 254 -24 q 195 -22 235 -22 q 81 176 106 25 q 71 425 71 238 q 71 579 71 476 q 71 734 71 683 q 83 765 71 756 l 118 780 q 157 770 147 777 q 172 735 172 762 q 162 582 172 684 q 153 429 153 480 q 163 225 153 316 q 230 63 182 63 q 322 293 291 63 q 343 580 343 444 q 335 671 343 611 q 328 762 328 731 q 338 801 328 780 q 381 815 374 815 q 412 796 394 815 q 430 765 430 778 m 394 1155 q 325 1051 371 1120 q 275 958 300 1003 q 215 890 237 890 q 180 899 210 890 l 173 914 q 310 1185 200 1007 q 348 1194 328 1194 q 378 1187 343 1194 q 394 1155 386 1177 "},"2":{"x_min":51.359375,"x_max":422,"ha":394,"o":"m 422 19 q 408 -11 422 5 q 381 -28 394 -28 q 287 -8 352 -28 q 190 11 221 11 q 142 -1 170 11 q 101 -15 115 -15 q 67 0 82 -15 q 53 36 53 16 q 172 330 104 127 q 246 637 246 549 q 210 743 246 743 q 118 625 160 743 l 93 619 q 51 667 51 619 q 105 764 51 720 q 213 808 160 808 q 303 754 273 808 q 328 644 328 710 q 249 334 328 548 q 170 91 170 120 q 254 74 180 85 q 344 65 323 65 q 422 19 422 65 "},"ü":{"x_min":71,"x_max":430,"ha":448,"o":"m 430 765 l 430 561 q 349 57 430 185 q 308 14 338 39 q 268 -23 278 -9 l 255 -24 q 195 -22 236 -22 q 81 176 106 25 q 71 425 71 238 q 71 579 71 476 q 71 734 71 683 q 83 765 71 756 l 118 780 q 157 770 147 777 q 172 735 172 762 q 162 582 172 684 q 153 429 153 480 q 163 225 153 316 q 230 63 182 63 q 322 293 291 63 q 343 580 343 444 q 335 671 343 611 q 328 762 328 731 q 338 801 328 780 q 381 815 374 815 q 412 796 394 815 q 430 765 430 778 m 387 962 q 367 920 387 937 q 324 904 348 904 q 271 942 291 904 q 258 986 258 966 q 276 1018 258 1002 q 310 1035 294 1035 q 361 1012 336 1035 q 387 962 387 989 m 224 987 q 157 915 224 915 q 120 942 139 915 q 101 988 101 969 q 150 1043 101 1029 q 167 1050 174 1050 q 191 1037 177 1050 q 213 1018 202 1036 q 224 987 224 1000 "},"Z":{"x_min":57.640625,"x_max":437,"ha":413,"o":"m 437 34 q 386 -7 437 14 q 343 5 338 5 q 232 -1 306 -1 q 120 -1 157 -1 q 77 8 87 -1 q 57 47 67 17 q 203 377 95 107 q 308 698 314 658 l 302 701 l 141 701 l 125 685 l 105 685 q 75 698 91 685 q 59 726 59 712 l 64 744 q 145 771 91 771 q 233 772 135 772 q 352 787 324 772 q 399 771 382 779 q 414 733 412 736 q 290 384 414 659 q 167 77 167 109 q 218 71 192 71 q 296 76 244 71 q 374 82 348 82 q 417 69 397 82 q 437 34 437 57 "},"u":{"x_min":71,"x_max":430,"ha":448,"o":"m 430 765 l 430 561 q 349 57 430 185 q 308 14 338 39 q 268 -23 277 -9 l 254 -24 q 195 -22 235 -22 q 81 176 106 25 q 71 425 71 238 q 71 579 71 476 q 71 734 71 683 q 83 765 71 756 l 118 780 q 157 770 147 777 q 172 735 172 762 q 162 582 172 684 q 153 429 153 480 q 163 225 153 316 q 230 63 182 63 q 322 293 291 63 q 343 580 343 444 q 335 671 343 611 q 328 762 328 731 q 338 801 328 780 q 381 815 374 815 q 412 796 394 815 q 430 765 430 778 "},"˜":{"x_min":80,"x_max":404,"ha":418,"o":"m 404 793 q 401 754 404 780 q 399 716 399 729 q 374 633 399 662 q 302 584 355 608 q 287 588 294 588 q 279 586 283 588 q 217 634 246 586 q 176 708 209 647 q 159 654 172 702 q 107 625 150 625 q 80 673 80 625 q 107 759 80 709 q 171 815 138 815 q 180 814 174 815 l 190 814 q 251 748 227 801 q 299 670 280 686 q 321 743 314 681 q 334 827 329 815 q 366 844 339 835 q 399 824 377 840 q 404 793 404 795 "},"Ó":{"x_min":42,"x_max":464,"ha":464,"o":"m 464 405 q 412 140 464 282 q 251 -39 346 -39 q 85 121 144 -39 q 42 371 42 241 q 65 618 42 445 q 114 847 90 817 q 154 863 124 863 q 295 853 269 863 q 421 653 370 824 q 464 405 464 513 m 381 402 q 340 640 381 522 q 194 795 287 795 q 145 586 165 769 q 129 353 129 436 q 157 176 129 269 q 261 51 195 51 l 277 51 q 352 218 319 98 q 381 402 381 324 m 386 1200 q 316 1096 363 1166 q 266 1003 292 1049 q 206 936 228 936 q 171 945 201 936 l 164 960 q 302 1231 191 1053 q 340 1240 319 1239 q 370 1232 334 1240 q 386 1200 378 1222 "},"k":{"x_min":43.84375,"x_max":483,"ha":450,"o":"m 483 -62 q 463 -94 483 -81 q 424 -108 444 -108 q 381 -36 381 -108 q 323 234 381 73 q 190 465 262 406 l 164 465 l 143 449 l 143 421 q 186 -20 143 191 l 164 -54 l 135 -57 q 101 -55 108 -57 q 74 173 74 -50 q 74 441 74 344 q 43 525 74 469 q 57 636 56 547 q 52 726 57 610 q 70 917 52 887 q 108 920 91 914 l 131 905 q 133 877 135 892 q 130 848 132 863 q 143 645 130 690 q 212 715 164 645 q 303 842 288 824 q 406 908 360 908 l 427 873 q 182 557 342 770 q 224 543 193 547 q 409 222 336 507 q 454 44 424 162 l 483 -62 "},"Ù":{"x_min":80,"x_max":420,"ha":438,"o":"m 420 758 q 420 693 420 736 q 420 629 420 651 l 420 405 q 214 -21 420 58 q 80 253 80 30 q 80 418 80 308 q 80 491 80 465 q 80 669 80 551 q 80 847 80 787 l 97 869 l 130 880 q 168 864 162 869 q 180 827 180 854 q 170 692 180 782 q 160 557 160 602 l 160 355 q 173 198 160 287 q 222 65 192 76 q 319 264 294 130 q 334 493 334 344 q 326 630 334 539 q 319 768 319 722 q 338 798 319 783 q 371 814 356 814 q 404 795 389 814 q 420 758 420 776 m 305 952 l 301 939 q 264 928 267 928 q 191 1014 243 928 q 131 1120 161 1066 q 84 1193 84 1183 q 101 1225 84 1200 q 131 1232 136 1232 l 168 1223 q 305 952 271 1062 "},"Ÿ":{"x_min":69,"x_max":490,"ha":479,"o":"m 490 811 q 414 593 490 793 q 339 321 339 394 q 351 71 339 126 l 361 23 q 337 -14 345 -8 q 291 -29 329 -19 q 261 53 261 -3 q 261 88 261 64 q 261 123 261 112 q 252 280 261 196 q 153 512 244 352 q 69 755 69 659 q 101 780 69 780 q 156 741 156 780 q 195 592 156 684 q 273 459 232 507 q 337 638 284 467 q 396 840 387 798 q 414 847 399 840 q 436 855 429 855 q 490 811 490 855 m 394 962 q 375 920 394 937 q 331 904 356 904 q 278 942 299 904 q 265 986 265 966 q 283 1018 265 1002 q 317 1035 301 1035 q 368 1012 343 1035 q 394 962 394 989 m 231 987 q 164 915 231 915 q 127 942 146 915 q 108 988 108 969 q 157 1043 108 1029 q 175 1050 181 1050 q 198 1037 184 1050 q 220 1018 209 1036 q 231 987 231 1000 "},"¢":{"x_min":30,"x_max":377.390625,"ha":367,"o":"m 377 564 q 367 538 370 543 q 348 519 361 525 q 288 520 300 519 l 264 507 l 264 478 q 264 403 264 430 q 264 330 264 351 q 292 332 276 329 q 314 336 307 336 q 333 326 324 336 q 342 306 342 316 q 313 266 342 280 q 260 248 288 258 q 260 141 260 194 q 236 36 253 79 l 224 25 l 186 16 l 162 29 l 158 47 l 176 211 q 174 248 174 223 q 82 292 144 262 q 30 390 30 320 q 82 485 30 438 q 167 559 111 509 l 167 643 q 189 754 167 725 l 225 763 q 257 676 257 749 q 257 638 257 664 q 257 599 257 611 l 262 591 l 270 591 q 297 596 279 591 q 325 602 316 602 q 377 564 355 602 m 176 456 l 167 459 q 135 423 152 441 q 121 378 121 401 q 137 348 121 365 q 162 331 146 342 l 176 334 q 176 366 176 348 l 176 383 q 176 456 176 397 "},"ß":{"x_min":31,"x_max":895,"ha":888,"o":"m 474 145 q 412 -4 474 77 q 283 -92 347 -92 q 109 123 153 -92 q 85 250 109 123 l 94 275 l 130 297 q 171 290 150 293 q 196 254 196 284 q 186 225 196 245 q 177 192 177 204 q 206 66 177 135 q 289 -17 242 -17 q 354 49 320 -17 q 386 146 386 109 q 293 320 386 238 q 122 463 235 367 q 31 638 31 545 q 124 808 31 723 q 301 893 217 893 q 375 839 348 893 q 399 745 399 796 q 386 688 399 725 q 357 644 372 644 q 302 684 302 644 q 305 716 302 695 q 309 749 309 738 q 280 822 309 805 q 167 757 214 807 q 118 636 118 703 q 224 476 118 575 q 381 346 303 411 q 474 145 474 252 m 895 146 q 830 31 895 93 q 714 -30 765 -30 q 567 29 609 -30 q 531 192 531 81 q 537 249 531 238 q 579 285 543 261 l 614 277 q 626 232 626 239 q 620 195 626 220 q 614 157 614 170 q 699 37 614 37 q 772 77 739 37 q 805 160 805 118 q 725 304 805 231 q 651 368 701 327 q 577 432 602 410 q 498 578 498 506 q 552 738 498 646 q 659 870 601 820 q 767 909 676 884 q 802 894 783 897 q 826 806 826 841 q 813 704 826 766 q 770 624 797 624 q 732 636 749 624 q 716 670 716 649 q 729 734 716 689 q 742 800 742 779 l 735 828 l 728 828 q 680 783 713 828 q 638 715 646 738 q 604 661 623 706 q 586 595 586 615 q 665 458 586 528 q 814 332 699 429 q 895 146 895 247 "},"é":{"x_min":18,"x_max":532,"ha":501,"o":"m 532 469 q 513 430 532 449 q 475 405 494 410 q 391 433 413 433 l 222 433 l 222 405 q 260 180 222 326 q 363 8 306 8 q 402 89 390 8 q 411 202 411 142 q 402 247 411 217 q 394 291 394 277 q 417 337 394 299 l 438 341 l 445 348 q 456 347 450 347 q 472 351 464 347 q 505 292 505 326 q 484 83 505 187 q 394 -71 454 -65 l 383 -80 q 276 -46 349 -76 q 147 419 147 121 q 74 459 74 438 l 78 476 q 137 512 101 485 l 137 533 q 147 641 137 565 q 147 749 147 710 l 147 781 l 123 784 q 103 776 118 784 q 80 769 88 769 q 71 770 75 769 l 61 763 l 46 766 l 18 804 l 18 816 q 67 843 39 824 l 84 841 q 148 853 88 841 l 168 873 l 216 878 q 259 864 231 864 q 323 873 281 864 q 386 883 364 883 l 404 876 q 423 855 406 870 q 440 830 440 839 l 423 800 q 358 800 401 800 q 291 800 315 800 q 227 788 240 800 q 227 567 227 601 l 227 506 q 417 502 273 502 q 488 522 437 502 q 517 503 503 522 q 532 469 532 485 m 406 1206 q 337 1102 383 1172 q 287 1009 312 1055 q 227 941 249 941 q 192 950 221 941 l 185 966 q 322 1237 212 1059 q 360 1245 340 1245 q 390 1238 355 1245 q 406 1206 398 1229 "},"s":{"x_min":31,"x_max":474,"ha":443,"o":"m 474 145 q 412 -4 474 77 q 283 -92 347 -92 q 109 123 153 -92 q 85 251 109 123 l 94 276 l 130 298 q 171 291 150 294 q 196 255 196 284 q 186 225 196 245 q 177 192 177 205 q 206 66 177 135 q 289 -17 242 -17 q 354 49 320 -17 q 386 146 386 109 q 293 320 386 238 q 122 463 235 367 q 31 638 31 545 q 124 808 31 723 q 301 893 217 893 q 375 840 348 893 q 399 745 399 797 q 386 688 399 726 q 357 644 372 644 q 302 684 302 644 q 305 717 302 695 q 309 749 309 738 q 280 823 309 806 q 167 758 214 808 q 118 637 118 703 q 224 477 118 576 q 381 346 303 412 q 474 145 474 252 "},"B":{"x_min":31.734375,"x_max":440,"ha":436,"o":"m 440 267 q 367 78 440 160 q 205 -44 314 19 q 156 -104 205 -82 l 143 -98 l 139 -100 q 93 -40 93 -89 q 93 -12 93 -30 q 93 14 93 5 q 93 257 93 107 q 73 478 93 455 q 78 550 78 495 q 78 695 78 593 l 78 839 l 52 846 q 31 895 34 866 l 83 923 l 94 922 q 127 927 105 922 q 160 933 149 933 q 314 907 251 933 q 403 793 403 871 q 235 506 403 673 q 381 427 350 455 q 440 267 440 374 m 313 789 q 197 866 313 866 q 162 834 162 866 q 162 804 162 824 q 162 775 162 785 q 162 675 162 743 q 162 570 162 606 l 172 556 q 313 789 313 677 m 350 273 q 300 394 350 351 q 171 438 250 438 l 172 418 q 178 34 178 430 l 195 31 q 309 127 268 63 q 350 273 350 192 "},"…":{"x_min":71,"x_max":614,"ha":605,"o":"m 230 87 q 207 35 230 59 q 157 11 185 11 q 98 39 125 11 q 71 101 71 67 q 151 168 71 168 q 170 156 147 168 q 212 133 204 139 q 230 87 230 116 m 419 80 q 395 28 419 52 q 345 4 372 4 q 286 32 313 4 q 260 94 260 60 q 338 161 260 161 q 357 149 334 161 q 401 126 394 131 q 419 80 419 110 m 614 77 q 591 25 614 49 q 541 1 569 1 q 482 29 509 1 q 456 91 456 57 q 535 158 456 158 q 554 146 530 158 q 596 123 588 130 q 614 77 614 106 "},"?":{"x_min":39,"x_max":432,"ha":414,"o":"m 432 651 q 370 508 432 574 q 256 415 351 487 q 195 335 195 368 q 220 249 195 301 q 246 193 246 197 q 206 146 246 146 q 136 218 165 146 q 111 328 111 276 q 172 443 111 394 q 285 526 210 469 q 346 647 346 576 q 252 710 346 710 l 247 704 q 229 707 239 707 q 130 598 167 707 l 132 587 q 90 532 132 531 q 52 540 102 532 q 39 572 39 569 q 115 732 39 679 q 290 778 180 778 q 386 739 340 778 q 432 651 432 701 m 307 47 q 258 -10 307 13 q 222 1 243 -10 q 193 46 193 1 q 225 95 193 63 q 241 97 233 95 q 275 86 252 99 q 288 90 279 89 q 302 74 296 78 q 307 47 307 57 "},"H":{"x_min":32.203125,"x_max":478.71875,"ha":495,"o":"m 476 433 l 476 64 q 471 18 464 47 q 478 -23 478 -10 q 433 -65 478 -44 q 382 -9 382 -65 q 382 273 382 98 q 243 303 382 303 q 186 295 208 303 l 186 234 q 199 97 186 188 q 213 -40 213 5 q 162 -96 213 -80 q 117 -73 147 -90 q 108 -26 108 -51 q 93 286 108 252 l 89 286 q 51 298 70 286 q 32 329 32 311 q 94 374 32 348 l 94 400 q 63 772 94 476 l 67 787 l 102 803 q 157 757 157 803 q 156 737 157 751 l 156 716 q 165 548 156 643 q 180 380 172 480 l 186 374 l 296 374 q 394 403 360 374 l 394 500 q 383 655 394 551 q 372 811 372 759 q 396 836 372 832 q 434 841 409 837 q 471 804 471 825 q 471 780 471 796 q 471 755 471 764 q 471 594 471 712 q 476 433 476 494 "},"î":{"x_min":39,"x_max":287,"ha":216,"o":"m 208 786 q 201 733 208 768 l 190 679 q 181 440 181 613 l 181 180 q 187 110 181 157 q 193 40 193 63 q 176 3 193 18 q 137 -11 160 -11 q 103 1 119 -11 q 88 32 88 14 q 115 798 88 576 l 168 825 q 195 813 183 825 q 208 786 208 801 m 287 900 q 246 864 287 864 q 191 915 221 864 q 145 988 153 981 q 120 912 139 978 q 63 875 109 875 q 39 902 39 875 q 64 1005 39 927 q 105 1104 90 1082 q 147 1127 121 1127 q 183 1112 166 1127 q 200 1079 200 1097 q 287 900 287 909 "},"c":{"x_min":35,"x_max":404,"ha":377,"o":"m 404 -5 q 363 -65 404 -38 l 352 -61 l 343 -62 q 300 -43 327 -59 q 256 -18 264 -20 q 100 102 160 24 q 35 290 35 188 q 186 733 35 578 q 259 792 210 758 q 341 833 316 833 q 379 828 348 833 l 393 803 q 311 742 393 773 q 122 308 122 613 q 176 138 122 212 q 320 37 230 63 q 371 30 345 33 q 404 -5 404 20 "},"¶":{"x_min":31,"x_max":638.078125,"ha":615,"o":"m 638 796 q 595 773 612 775 q 545 773 586 773 l 551 749 q 551 467 551 655 q 551 185 551 280 q 568 83 551 151 q 585 -19 585 15 l 579 -51 l 534 -72 l 494 -47 q 471 337 471 23 q 453 769 471 681 q 296 757 378 769 l 296 730 q 296 675 296 702 q 331 337 296 562 q 366 -1 366 112 q 349 -33 366 -20 q 314 -45 333 -45 q 271 -25 307 -45 l 276 5 q 252 426 276 256 q 209 427 248 427 q 84 482 138 427 q 31 609 31 536 q 349 819 31 819 q 440 819 379 819 q 530 819 500 819 q 636 807 605 819 l 638 796 "},"•":{"x_min":127,"x_max":369,"ha":383,"o":"m 369 420 q 330 334 369 368 q 239 301 291 301 q 160 339 193 301 q 127 424 127 377 q 156 498 127 463 q 223 534 186 534 q 292 512 248 534 q 355 471 337 491 q 363 448 358 470 q 369 420 369 425 "},"¥":{"x_min":41.90625,"x_max":519.515625,"ha":505,"o":"m 519 290 l 487 248 q 454 251 476 248 q 420 254 431 254 q 343 235 369 254 l 343 198 l 348 168 q 460 189 448 189 q 492 177 474 189 q 510 152 510 166 q 450 97 510 97 q 417 104 439 104 q 350 98 415 104 l 344 91 l 344 79 q 349 42 344 66 q 355 8 355 19 q 340 -24 355 -9 q 308 -39 326 -39 q 261 -8 267 -39 q 260 51 261 51 l 260 80 l 254 86 l 245 86 q 127 69 242 86 q 102 104 102 94 q 168 147 102 137 q 260 158 174 148 l 260 221 l 249 223 q 191 209 230 223 q 134 196 153 196 q 95 232 118 196 q 146 276 95 253 l 157 275 q 260 298 170 275 l 260 322 q 163 537 262 336 q 41 808 56 753 l 51 824 q 103 827 39 827 l 116 822 q 276 474 171 625 q 328 664 287 505 q 386 851 359 788 q 409 867 390 859 q 438 875 427 875 q 462 863 450 875 q 474 838 474 851 q 408 607 474 788 q 342 336 342 426 l 344 320 l 355 315 q 478 332 434 332 l 506 320 l 519 290 "},"(":{"x_min":42,"x_max":308.75,"ha":288,"o":"m 308 -58 l 282 -99 l 255 -104 q 217 -90 235 -104 q 200 -58 200 -77 q 74 137 109 36 q 42 370 42 230 q 86 684 42 480 q 190 966 137 910 l 224 972 q 255 958 238 972 q 272 931 272 945 q 129 377 129 579 q 296 -29 129 82 l 308 -58 "},"U":{"x_min":80,"x_max":420,"ha":438,"o":"m 420 758 q 420 693 420 736 q 420 629 420 651 l 420 405 q 214 -21 420 58 q 80 253 80 30 q 80 418 80 308 q 80 491 80 465 q 80 669 80 551 q 80 847 80 787 l 97 869 l 130 880 q 168 863 162 869 q 180 827 180 854 q 170 692 180 782 q 160 557 160 602 l 160 355 q 173 198 160 287 q 222 65 192 76 q 319 264 294 130 q 334 493 334 344 q 326 630 334 539 q 319 768 319 722 q 338 798 319 783 q 371 814 356 814 q 404 795 389 814 q 420 758 420 776 "},"Ñ":{"x_min":41.859375,"x_max":471,"ha":500,"o":"m 471 774 q 471 482 471 660 l 471 185 q 468 119 471 162 q 466 57 466 76 q 452 20 466 37 q 419 3 438 3 q 371 22 385 3 q 354 72 363 33 q 150 518 313 228 l 148 514 l 148 491 q 163 245 148 409 q 179 0 179 81 q 160 -33 179 -20 q 120 -46 142 -46 q 75 -13 107 -46 q 65 45 65 27 q 65 416 65 118 q 41 767 65 745 l 47 788 q 99 802 84 802 q 134 775 127 802 q 137 725 137 750 q 265 491 198 642 l 373 244 l 380 244 q 380 779 380 298 q 414 826 380 802 q 453 812 435 826 q 471 774 471 799 m 405 1062 q 402 1023 405 1049 q 400 985 400 998 q 375 902 400 931 q 303 853 356 877 q 288 856 295 856 q 280 855 284 856 q 218 903 247 855 q 177 977 210 916 q 160 923 173 971 q 108 894 152 894 q 81 942 81 894 q 108 1028 81 978 q 172 1084 139 1084 q 182 1083 175 1084 l 191 1083 q 253 1017 228 1070 q 300 939 281 955 q 322 1012 315 950 q 336 1096 330 1084 q 367 1113 340 1104 q 400 1093 378 1108 q 405 1062 405 1064 "},"F":{"x_min":41.90625,"x_max":431,"ha":405,"o":"m 431 832 q 401 774 431 811 l 374 774 q 330 802 347 802 l 193 802 q 185 717 185 789 q 185 635 185 694 q 185 552 185 582 l 206 542 q 276 547 223 542 q 336 557 329 553 l 363 545 l 377 513 q 329 468 377 468 q 297 472 318 468 q 268 476 277 476 q 194 473 274 476 l 189 463 l 189 -92 l 176 -123 l 130 -137 q 106 -125 118 -137 q 95 -98 95 -113 q 95 172 95 -7 q 95 442 95 352 q 63 461 69 456 q 46 499 46 474 q 70 521 46 507 q 105 536 86 528 l 105 776 l 92 785 l 81 783 q 41 841 46 801 q 199 869 58 853 q 371 883 330 883 l 406 874 l 431 832 "},":":{"x_min":80,"x_max":227,"ha":220,"o":"m 223 602 q 205 550 223 574 q 161 526 187 526 q 108 550 130 526 q 86 607 86 575 q 98 661 86 634 q 121 677 99 667 q 151 688 144 688 q 203 662 183 688 q 223 602 223 636 m 227 228 q 201 184 227 201 q 147 168 175 168 q 121 181 140 168 q 98 202 102 195 q 80 252 80 223 q 95 285 80 260 q 117 313 110 310 q 152 319 138 319 q 217 288 178 319 q 227 228 227 241 "},"Û":{"x_min":80,"x_max":420,"ha":438,"o":"m 420 758 q 420 693 420 736 q 420 629 420 651 l 420 405 q 214 -21 420 58 q 80 253 80 30 q 80 418 80 308 q 80 491 80 465 q 80 669 80 551 q 80 847 80 787 l 97 869 l 130 880 q 168 864 162 869 q 180 827 180 854 q 170 692 180 782 q 160 557 160 602 l 160 355 q 173 198 160 287 q 222 65 192 76 q 319 264 294 130 q 334 493 334 344 q 326 630 334 539 q 319 768 319 722 q 338 798 319 783 q 371 814 356 814 q 404 795 389 814 q 420 758 420 776 m 396 959 q 354 924 396 924 q 300 975 330 924 q 254 1048 262 1041 q 229 972 248 1038 q 172 935 218 935 q 148 962 148 935 q 173 1065 148 987 q 214 1164 199 1142 q 256 1187 230 1187 q 292 1172 275 1187 q 309 1139 309 1157 q 396 959 396 969 "},"*":{"x_min":65,"x_max":494.875,"ha":485,"o":"m 494 403 q 480 380 494 392 q 455 368 466 368 q 371 455 412 368 q 284 594 321 562 l 278 588 q 239 455 239 451 q 194 407 239 407 q 140 443 140 407 l 172 536 q 205 647 205 629 l 202 656 l 183 656 q 142 650 169 650 l 130 644 q 103 644 116 645 l 82 654 q 65 690 65 680 q 99 729 65 722 q 154 732 111 732 q 206 737 161 733 l 214 746 q 214 844 214 795 q 271 904 223 904 q 312 863 301 904 q 302 762 302 831 l 303 753 q 363 753 323 753 q 424 753 403 753 q 459 747 450 753 q 482 714 463 743 q 429 663 473 663 q 395 676 413 663 q 370 678 376 674 l 352 678 l 347 672 l 347 658 q 494 403 494 442 "},"V":{"x_min":49.28125,"x_max":479,"ha":471,"o":"m 479 847 q 472 808 479 834 q 462 768 464 777 q 378 396 451 663 q 313 32 313 155 q 303 -14 313 7 q 269 -44 291 -44 q 213 -25 228 -44 q 199 35 199 -7 q 105 525 199 101 l 49 776 l 54 797 l 61 802 l 73 798 l 88 804 l 120 798 q 193 527 143 776 q 251 221 212 434 q 333 543 306 364 q 379 869 348 651 q 439 893 400 893 q 466 877 454 893 q 479 847 479 862 "},"å":{"x_min":35,"x_max":559,"ha":522,"o":"m 559 -59 q 540 -88 559 -73 q 508 -103 522 -103 q 459 -65 470 -103 q 449 2 454 -22 q 372 267 439 69 l 349 274 q 202 255 324 274 q 166 128 183 223 q 152 -4 152 45 q 91 -50 152 -36 l 48 -28 l 43 0 q 79 105 59 28 q 100 216 100 183 q 35 260 35 242 q 76 315 35 283 q 101 318 91 318 q 119 315 112 318 q 165 549 121 324 l 207 767 l 200 793 q 111 920 111 843 q 173 1020 111 969 q 285 1072 236 1072 q 383 1021 346 1072 q 420 906 420 970 q 330 739 420 802 l 330 728 q 375 549 330 707 q 433 372 421 391 l 444 372 q 505 352 470 372 l 515 312 q 464 267 479 260 q 518 95 471 233 q 559 -59 559 -25 m 330 906 q 320 962 330 935 q 285 998 308 998 q 244 980 274 998 q 196 908 196 950 q 206 873 196 898 q 238 855 233 855 q 249 858 242 855 q 259 861 255 861 q 313 839 268 861 q 330 906 330 853 m 344 351 l 344 363 q 267 616 344 367 q 234 475 255 573 q 213 339 213 370 l 215 330 l 226 330 q 344 351 278 330 "},"0":{"x_min":49,"x_max":511.75,"ha":512,"o":"m 511 402 q 465 151 511 273 q 304 -7 405 -7 q 111 142 186 -7 q 49 399 49 267 q 114 671 49 530 q 303 841 191 841 q 445 699 371 841 q 511 488 511 571 l 511 402 m 426 428 q 299 752 426 642 l 259 758 q 163 601 198 706 q 132 416 132 509 q 244 99 132 202 q 274 81 250 94 q 304 68 299 68 q 401 219 367 68 q 426 428 426 329 "},"”":{"x_min":44,"x_max":398,"ha":398,"o":"m 398 580 q 376 554 398 566 q 339 543 354 543 q 291 583 312 543 q 293 601 293 591 q 267 749 293 623 q 234 894 242 876 q 250 920 237 908 q 275 933 263 933 l 305 933 q 339 876 339 916 q 365 697 339 809 q 383 634 367 687 q 398 580 398 587 m 206 611 q 188 581 206 594 q 154 568 171 568 q 121 573 151 569 q 105 605 106 595 q 94 697 101 647 q 64 810 90 713 q 44 919 44 887 l 46 924 q 107 943 80 943 q 143 919 127 943 q 142 896 142 908 q 158 787 142 869 q 185 674 174 710 q 197 644 186 672 q 206 611 206 624 "},"¾":{"x_min":18,"x_max":686,"ha":666,"o":"m 278 565 q 234 474 278 507 q 132 442 190 442 q 120 438 129 442 q 40 451 95 438 q 18 476 18 461 q 60 511 18 511 q 88 502 65 511 q 124 493 112 493 q 167 509 147 493 q 188 548 188 526 q 136 590 188 569 q 85 651 85 612 q 119 692 95 660 l 114 692 l 102 690 q 86 683 94 683 l 67 683 q 31 732 31 691 l 47 752 q 155 791 147 791 q 241 726 241 791 q 204 652 241 728 l 250 613 q 278 565 278 585 m 686 279 q 669 101 686 236 q 638 -65 651 -47 q 598 -71 593 -71 q 577 -8 577 -71 q 577 32 577 5 q 577 72 577 58 l 571 78 q 545 78 563 78 q 520 78 528 78 q 414 137 414 78 q 460 280 414 145 q 496 296 480 296 q 507 294 501 296 q 518 293 514 293 q 538 252 538 280 q 527 213 538 243 q 516 165 516 183 q 582 149 535 149 l 588 154 q 588 258 588 207 q 642 324 596 324 q 671 308 656 324 q 686 279 686 293 m 484 736 q 312 200 346 330 q 246 -75 292 114 q 195 -108 238 -108 q 149 -59 149 -108 q 262 315 163 -38 q 396 748 366 683 q 420 776 408 776 q 471 765 426 776 l 484 736 "},"@":{"x_min":73,"x_max":762,"ha":761,"o":"m 762 416 q 727 297 762 363 q 640 223 688 223 q 591 231 624 223 q 543 242 571 235 l 488 285 l 481 285 q 367 211 421 211 q 268 247 309 211 q 224 342 224 285 q 283 460 224 428 q 380 497 332 478 q 433 465 399 489 q 482 442 463 458 l 479 436 q 533 351 479 403 q 621 299 587 299 q 666 350 651 299 q 679 428 679 389 q 621 621 679 550 q 441 699 559 699 q 232 601 312 699 q 155 376 155 510 q 250 121 155 215 q 505 27 346 27 q 587 58 553 27 q 632 120 602 72 q 669 152 653 152 q 693 142 681 152 q 706 121 706 133 q 632 -6 706 39 q 484 -44 569 -44 q 187 74 301 -44 q 73 381 73 193 q 181 651 73 543 q 450 759 289 759 q 677 661 593 759 q 762 416 762 563 m 408 350 q 378 433 408 380 l 363 433 q 338 412 357 433 q 316 385 319 392 q 307 332 307 362 q 363 282 307 282 q 397 307 383 282 q 408 350 408 326 "},"ö":{"x_min":35,"x_max":514,"ha":515,"o":"m 514 385 q 452 103 514 244 q 258 -71 376 -71 q 77 102 137 -71 q 35 378 35 226 q 108 804 35 625 q 119 850 113 828 q 147 872 128 878 l 170 883 l 218 871 q 271 878 229 878 q 466 685 401 878 q 514 385 514 546 m 426 398 q 391 648 426 536 q 239 809 342 809 q 146 639 182 809 q 120 416 120 514 l 120 320 q 157 128 120 227 q 277 4 203 4 q 389 169 343 4 q 426 398 426 296 m 413 1004 q 393 962 413 979 q 350 946 374 946 q 297 985 317 946 q 284 1028 284 1009 q 302 1061 284 1045 q 336 1077 320 1077 q 387 1054 362 1077 q 413 1004 413 1031 m 250 1029 q 183 958 250 958 q 146 984 165 958 q 127 1031 127 1011 q 176 1085 127 1071 q 193 1092 200 1092 q 217 1079 203 1092 q 239 1060 228 1078 q 250 1029 250 1042 "},"i":{"x_min":88,"x_max":208,"ha":216,"o":"m 208 786 q 201 733 208 768 l 190 679 q 181 440 181 613 l 181 180 q 187 110 181 157 q 193 40 193 63 q 176 3 193 18 q 137 -11 160 -11 q 103 1 119 -11 q 88 32 88 14 q 115 798 88 576 l 168 825 q 195 813 183 825 q 208 786 208 801 "},"Õ":{"x_min":42,"x_max":464,"ha":464,"o":"m 464 405 q 412 140 464 282 q 251 -39 346 -39 q 85 121 144 -39 q 42 371 42 241 q 65 618 42 445 q 114 847 91 817 q 154 863 124 863 q 295 853 269 863 q 421 653 370 824 q 464 405 464 513 m 381 402 q 340 640 381 522 q 194 795 287 795 q 145 586 165 769 q 129 353 129 436 q 157 176 129 269 q 261 51 195 51 l 277 51 q 352 218 319 98 q 381 402 381 324 m 411 1122 q 408 1083 411 1109 q 406 1045 406 1058 q 381 962 406 991 q 308 913 361 937 q 293 916 300 916 q 285 915 289 916 q 224 963 252 915 q 183 1037 216 976 q 165 983 179 1031 q 114 954 157 954 q 87 1002 87 954 q 114 1088 87 1038 q 178 1144 145 1144 q 187 1143 180 1144 l 197 1143 q 258 1077 233 1130 q 306 999 287 1015 q 327 1072 321 1010 q 341 1156 336 1144 q 372 1173 345 1164 q 406 1153 383 1169 q 411 1122 411 1124 "},"þ":{"x_min":48,"x_max":372,"ha":364,"o":"m 372 408 q 319 271 372 358 q 215 186 261 177 q 178 173 207 179 q 140 160 150 166 q 140 81 140 127 l 140 1 q 123 -21 140 -12 q 93 -30 107 -30 q 48 -3 64 -30 l 48 777 q 61 796 48 789 q 82 809 74 803 l 89 809 q 134 753 134 809 q 134 723 134 744 q 134 690 134 701 l 134 662 q 308 585 244 651 q 372 408 372 518 m 367 402 q 285 542 367 502 q 161 587 222 565 q 156 759 156 651 q 106 796 156 796 q 68 759 68 796 l 68 585 q 68 527 68 540 q 89 4 89 493 l 81 -18 q 149 -52 102 -52 q 176 -38 164 -52 q 188 -9 188 -24 q 181 88 188 20 q 175 186 175 152 q 237 205 208 205 q 331 279 290 205 q 367 402 367 345 m 281 423 q 242 304 281 365 q 145 235 199 235 l 138 242 q 138 296 138 257 q 138 375 138 346 q 138 507 138 375 q 144 579 138 565 l 157 581 q 248 528 210 581 q 281 423 281 480 m 277 384 q 176 498 277 498 l 169 498 l 171 485 q 171 384 171 443 q 171 282 171 305 l 181 277 q 196 277 186 278 q 211 276 205 276 q 234 284 207 276 q 277 384 277 331 "},"]":{"x_min":32.390625,"x_max":284,"ha":309,"o":"m 284 929 q 284 445 284 767 l 284 -37 q 195 -71 284 -71 l 166 -71 q 96 -44 137 -71 l 95 -38 q 131 0 95 0 q 167 -6 146 0 l 193 5 q 193 823 193 255 q 180 897 193 884 q 107 911 168 911 q 84 916 103 912 q 70 919 75 919 q 62 916 65 919 l 39 923 l 32 938 l 40 956 l 107 975 q 284 929 284 975 "},"m":{"x_min":44,"x_max":560.03125,"ha":542,"o":"m 560 -10 q 519 -61 550 -61 l 468 -61 l 450 -26 l 459 30 q 442 348 459 148 q 420 665 420 581 q 353 495 393 604 q 304 330 304 362 q 254 296 265 296 q 205 309 234 296 q 195 372 195 322 q 132 613 195 400 l 138 584 q 138 8 138 233 q 120 -19 138 -6 q 89 -33 103 -33 q 59 -19 74 -33 q 44 11 44 -5 q 61 933 44 834 l 98 953 q 192 746 139 953 l 261 476 q 344 687 302 562 l 416 905 l 454 927 q 483 926 460 926 q 526 913 495 927 q 526 773 526 866 q 526 631 526 674 q 526 300 526 559 q 560 -10 526 14 "},"8":{"x_min":27,"x_max":436,"ha":425,"o":"m 436 203 q 381 39 436 107 q 231 -33 323 -33 q 81 40 139 -33 q 27 204 27 108 q 53 355 27 290 q 100 434 62 379 q 140 503 136 486 q 86 660 86 554 q 105 791 86 726 q 179 880 130 880 q 285 762 227 880 q 339 597 339 654 q 330 554 339 590 q 323 515 322 518 q 405 371 373 472 q 436 203 436 279 m 257 597 q 198 781 257 705 l 190 781 q 169 642 169 729 q 175 580 169 612 q 205 535 185 535 q 242 546 198 535 q 257 597 257 572 m 358 228 q 332 365 358 273 q 272 471 302 471 q 210 462 268 471 q 130 339 160 429 q 105 187 105 261 q 133 76 105 124 q 224 20 167 20 q 329 92 294 20 q 358 228 358 150 "},"R":{"x_min":37.890625,"x_max":468.109375,"ha":441,"o":"m 468 9 l 449 -31 q 432 -35 443 -31 q 416 -39 421 -39 q 372 -11 380 -39 q 371 45 371 -3 q 339 260 371 166 q 201 395 294 395 l 169 386 l 169 209 q 182 46 169 92 q 159 7 172 17 q 116 -2 146 -2 q 80 38 97 -2 q 76 231 76 79 q 76 722 76 288 q 37 763 39 746 q 73 831 48 792 q 252 862 163 862 q 367 825 309 862 q 430 729 430 785 q 374 581 430 659 q 261 467 328 516 l 265 459 q 394 356 349 441 q 446 179 431 288 q 468 9 453 123 m 339 716 q 228 791 339 791 q 185 781 207 791 q 159 749 159 768 q 159 640 159 713 q 159 531 159 567 q 159 496 159 509 l 171 493 q 280 588 231 529 q 339 716 339 659 "},"á":{"x_min":27,"x_max":589,"ha":580,"o":"m 589 314 l 576 284 q 528 253 549 272 l 521 255 q 516 242 516 255 q 550 109 516 199 q 585 -21 585 20 q 570 -59 585 -42 q 536 -77 556 -77 q 475 30 475 -77 q 450 151 475 48 q 419 261 425 254 l 408 261 q 303 250 368 261 q 197 237 217 237 q 167 132 183 224 q 155 19 155 60 q 110 -17 119 -17 q 74 -5 91 -17 q 57 24 57 6 q 79 114 57 50 q 101 202 101 178 l 101 223 l 73 223 q 46 239 66 223 q 27 263 27 256 q 59 301 27 289 q 114 306 84 309 l 119 316 q 165 495 141 371 q 206 678 193 634 q 252 837 252 831 q 245 928 252 867 q 268 948 253 946 q 295 955 290 952 l 333 938 q 413 648 367 837 q 490 356 462 443 q 502 352 492 352 l 522 361 q 529 359 526 359 q 539 365 534 359 q 589 314 589 353 m 404 334 q 363 521 404 354 q 310 730 330 655 q 202 308 215 430 q 303 316 240 308 l 401 328 q 404 334 402 330 m 472 1298 q 402 1194 449 1263 q 352 1101 378 1146 q 292 1033 314 1033 q 257 1042 287 1033 l 250 1057 q 387 1328 277 1151 q 425 1337 405 1337 q 455 1330 420 1337 q 472 1298 464 1320 "},"×":{"x_min":64,"x_max":452.8125,"ha":452,"o":"m 452 237 q 436 207 452 219 q 400 196 419 196 q 372 204 405 196 q 244 312 314 275 q 201 237 229 287 l 201 230 q 145 193 201 193 q 102 241 102 193 q 179 379 139 302 q 64 551 64 523 q 72 579 64 543 q 120 589 107 589 q 172 534 146 589 q 221 457 203 470 q 281 550 260 518 q 362 611 322 611 q 399 586 383 611 l 399 577 q 343 493 399 575 q 288 384 288 411 q 416 296 399 296 q 452 237 452 269 "},"o":{"x_min":35,"x_max":514,"ha":515,"o":"m 514 385 q 452 103 514 244 q 258 -71 376 -71 q 77 102 137 -71 q 35 378 35 226 q 108 804 35 625 q 119 850 113 828 q 148 872 128 878 l 171 883 l 218 871 q 271 878 229 878 q 466 685 401 878 q 514 385 514 546 m 426 398 q 391 648 426 536 q 239 809 342 809 q 146 639 182 809 q 120 416 120 514 l 120 320 q 157 128 120 227 q 277 4 203 4 q 390 169 344 4 q 426 398 426 296 "},"5":{"x_min":44,"x_max":472,"ha":463,"o":"m 472 308 q 390 47 472 152 q 152 -68 301 -68 q 110 -10 110 -68 q 120 21 110 5 q 145 36 130 36 l 171 28 l 180 5 l 197 -1 q 337 105 279 -1 q 388 286 388 197 q 313 449 388 449 q 219 424 265 449 q 134 380 148 386 l 104 387 l 87 411 q 72 619 87 483 q 57 675 70 636 q 44 730 44 715 q 175 801 44 762 q 333 836 292 836 q 377 800 355 836 q 341 762 371 769 q 287 760 330 760 q 209 744 262 760 q 140 714 156 728 l 140 702 q 152 589 140 684 q 169 483 165 493 l 176 482 q 311 511 262 511 q 435 449 393 511 q 472 308 472 395 "},"õ":{"x_min":35,"x_max":514,"ha":515,"o":"m 514 385 q 452 103 514 244 q 258 -71 376 -71 q 77 102 137 -71 q 35 378 35 226 q 108 804 35 625 q 119 850 113 828 q 148 872 128 878 l 171 884 l 218 871 q 271 878 229 878 q 466 685 401 878 q 514 385 514 546 m 426 398 q 391 648 426 536 q 239 809 342 809 q 146 639 182 809 q 120 416 120 514 l 120 320 q 157 128 120 227 q 277 4 203 4 q 390 169 344 4 q 426 398 426 296 m 423 1130 q 420 1091 423 1117 q 418 1053 418 1066 q 393 970 418 999 q 321 921 374 945 q 306 924 313 924 q 298 923 302 924 q 236 971 265 923 q 195 1045 228 984 q 178 991 191 1039 q 126 962 169 962 q 99 1010 99 962 q 126 1096 99 1046 q 190 1152 157 1152 q 199 1151 193 1152 l 209 1151 q 270 1085 246 1138 q 318 1007 299 1023 q 340 1080 333 1018 q 353 1164 348 1152 q 385 1181 358 1172 q 418 1161 396 1177 q 423 1130 423 1132 "},"7":{"x_min":47.46875,"x_max":360,"ha":361,"o":"m 360 418 q 341 386 360 399 q 303 374 322 374 q 284 255 284 357 q 284 123 284 170 q 286 48 284 99 q 288 -27 288 -2 q 238 -80 288 -80 q 197 -65 215 -80 q 179 -27 179 -50 q 185 47 179 -2 q 191 122 191 97 q 211 371 191 186 l 197 375 q 117 364 142 375 q 59 408 59 389 l 71 430 q 171 449 105 449 q 217 449 192 449 q 240 587 226 455 q 253 748 253 706 q 243 787 253 775 l 235 787 q 170 770 214 787 q 108 753 125 753 q 47 791 47 753 q 94 823 47 812 q 158 832 127 827 l 258 860 l 312 852 q 341 733 341 814 q 325 606 341 690 q 310 479 310 522 q 360 418 360 460 "},"K":{"x_min":84,"x_max":530.40625,"ha":495,"o":"m 530 -5 q 515 -34 531 -18 q 486 -51 499 -51 q 438 -30 450 -51 q 430 23 430 -16 q 376 281 430 148 q 210 447 311 447 l 177 447 l 170 424 q 183 222 170 363 q 210 30 196 63 q 151 -18 198 -18 q 119 -1 132 -18 q 100 33 116 1 q 84 84 84 65 q 84 451 84 224 l 84 819 q 119 840 108 840 q 147 810 142 840 q 149 758 149 805 q 163 576 149 651 q 284 730 183 591 q 410 845 367 845 q 432 833 414 845 q 450 819 450 822 q 348 670 440 788 q 226 519 307 620 q 251 521 239 521 q 444 326 365 521 q 519 37 497 195 l 527 26 l 530 -5 "},",":{"x_min":81.453125,"x_max":259.75,"ha":253,"o":"m 259 32 q 229 -95 259 -31 q 138 -173 193 -173 q 100 -153 104 -173 l 105 -140 q 174 19 174 -98 q 169 39 174 29 q 115 44 150 39 q 81 98 81 82 q 110 174 81 138 q 178 211 139 211 q 217 198 182 211 q 240 163 227 186 q 259 32 259 116 "},"d":{"x_min":46,"x_max":470,"ha":462,"o":"m 470 516 l 470 474 q 338 127 470 328 q 260 32 320 100 q 192 -65 210 -24 l 157 -86 q 90 -36 107 -79 q 84 -3 84 -11 q 84 820 84 64 q 55 843 65 824 q 46 865 46 861 q 86 909 46 878 l 94 909 l 118 906 l 221 872 q 386 770 330 838 q 470 516 470 671 m 383 528 q 324 714 383 638 q 161 822 266 790 q 167 774 167 792 l 167 693 q 167 63 167 578 q 323 274 263 144 q 383 528 383 405 "},"¨":{"x_min":60,"x_max":346,"ha":362,"o":"m 346 773 q 326 731 346 748 q 283 715 307 715 q 230 753 250 715 q 217 797 217 777 q 235 829 217 813 q 269 846 253 846 q 320 823 295 846 q 346 773 346 800 m 183 798 q 116 726 183 726 q 79 753 98 726 q 60 799 60 780 q 109 854 60 840 q 126 861 133 861 q 150 848 136 861 q 172 829 161 847 q 183 798 183 811 "},"Ô":{"x_min":42,"x_max":464,"ha":464,"o":"m 464 405 q 412 140 464 282 q 251 -39 346 -39 q 85 121 144 -39 q 42 371 42 241 q 65 618 42 445 q 113 847 90 817 q 154 863 124 863 q 295 853 269 863 q 421 653 370 824 q 464 405 464 513 m 381 402 q 340 640 381 522 q 194 795 287 795 q 145 586 165 769 q 129 353 129 436 q 157 176 129 269 q 261 51 195 51 l 277 51 q 352 218 319 98 q 381 402 381 324 m 325 941 q 284 905 325 905 q 229 956 259 905 q 183 1029 191 1022 q 158 953 178 1020 q 101 916 148 916 q 77 943 77 916 q 102 1046 77 968 q 143 1146 128 1124 q 185 1168 159 1168 q 221 1153 204 1168 q 238 1121 238 1139 q 325 941 325 950 "},"E":{"x_min":16,"x_max":431,"ha":409,"o":"m 431 870 q 414 834 431 864 q 259 795 363 824 l 252 797 q 177 777 206 797 q 160 516 160 613 l 165 502 l 194 502 q 323 519 237 502 l 330 527 l 357 537 q 389 514 375 533 q 404 477 404 495 q 361 432 404 432 q 333 432 352 432 q 304 433 313 433 q 165 433 301 433 l 159 398 q 179 184 159 288 q 270 32 209 32 q 296 141 296 52 q 292 216 296 166 q 288 290 288 265 q 305 345 288 333 q 363 358 318 354 q 389 311 389 344 q 380 98 389 152 q 278 -50 357 -50 q 73 405 73 -50 q 16 435 54 408 l 16 451 q 36 482 16 469 q 73 503 55 492 q 84 605 74 520 q 91 712 91 670 q 89 749 91 733 q 35 803 35 767 q 161 878 35 842 l 188 858 l 195 858 q 382 909 259 880 q 431 870 431 891 "},"Y":{"x_min":69,"x_max":490,"ha":479,"o":"m 490 811 q 414 593 490 793 q 339 321 339 394 q 351 71 339 126 l 362 23 q 337 -14 345 -8 q 291 -29 329 -19 q 261 53 261 -3 q 261 88 261 64 q 261 123 261 112 q 252 280 261 196 q 153 512 244 352 q 69 755 69 659 q 101 780 69 780 q 156 741 156 780 q 195 592 156 684 q 273 459 232 507 q 337 638 284 467 q 397 840 387 798 q 415 847 400 840 q 436 855 430 855 q 490 811 490 855 "},"\"":{"x_min":44,"x_max":398,"ha":398,"o":"m 398 580 q 376 554 398 566 q 339 543 354 543 q 291 583 312 543 q 293 601 293 591 q 267 749 293 623 q 234 894 242 876 q 250 920 237 908 q 275 933 263 933 l 305 933 q 339 876 339 916 q 365 697 339 809 q 383 634 367 687 q 398 580 398 587 m 206 611 q 188 581 206 594 q 154 568 171 568 q 121 573 151 569 q 105 605 106 595 q 94 697 101 647 q 64 810 90 713 q 44 919 44 887 l 46 924 q 107 943 80 943 q 143 919 127 943 q 142 896 142 908 q 158 787 142 869 q 185 674 174 710 q 197 644 186 672 q 206 611 206 624 "},"ê":{"x_min":18,"x_max":532,"ha":501,"o":"m 532 469 q 513 430 532 449 q 475 405 494 410 q 391 433 413 433 l 222 433 l 222 405 q 260 180 222 326 q 363 8 306 8 q 402 89 390 8 q 411 202 411 142 q 402 247 411 217 q 394 291 394 277 q 417 337 394 299 l 438 341 l 445 348 q 456 347 450 347 q 472 351 464 347 q 505 292 505 326 q 484 83 505 187 q 394 -71 454 -65 l 383 -80 q 276 -46 349 -76 q 147 419 147 121 q 73 459 73 438 l 77 476 q 137 512 100 485 l 137 533 q 147 641 137 565 q 147 749 147 710 l 147 781 l 123 784 q 103 776 118 784 q 79 769 88 769 q 70 770 74 769 l 60 763 l 46 766 l 18 804 l 18 816 q 66 843 39 824 l 84 841 q 148 853 88 841 l 168 873 l 216 878 q 260 864 231 864 q 323 873 282 864 q 386 883 365 883 l 404 876 q 423 855 406 870 q 440 830 440 839 l 423 800 q 358 800 401 800 q 292 800 316 800 q 227 788 240 800 q 227 567 227 601 l 227 506 q 417 502 273 502 q 488 522 437 502 q 517 503 503 522 q 532 469 532 485 m 365 987 q 324 951 365 951 q 269 1002 299 951 q 223 1075 231 1068 q 198 999 217 1066 q 141 962 187 962 q 117 989 117 962 q 142 1092 117 1014 q 183 1192 168 1170 q 225 1214 199 1214 q 261 1200 244 1214 q 278 1167 278 1185 q 365 987 365 996 "},"Ï":{"x_min":-30,"x_max":257,"ha":189,"o":"m 187 49 q 160 9 187 33 l 146 10 l 129 4 q 87 120 87 4 q 87 185 87 142 q 87 251 87 229 l 87 376 q 76 592 87 448 q 65 809 65 737 l 69 822 l 87 836 q 104 840 92 836 q 125 844 117 844 q 167 802 160 844 l 167 740 q 167 508 167 662 q 167 277 167 355 l 167 165 q 177 107 167 145 q 187 49 187 69 m 257 981 q 237 939 257 956 q 194 923 218 923 q 140 961 161 923 q 128 1005 128 985 q 145 1037 128 1021 q 180 1054 163 1054 q 231 1031 205 1054 q 257 981 257 1008 m 94 1006 q 27 934 94 934 q -10 961 8 934 q -30 1007 -30 988 q 20 1062 -30 1048 q 38 1069 44 1069 q 61 1056 46 1069 q 83 1037 72 1055 q 94 1006 94 1019 "},"Â":{"x_min":20,"x_max":544.5,"ha":536,"o":"m 544 14 q 524 -21 544 -6 q 483 -37 504 -37 l 462 -32 l 439 -1 l 440 15 q 416 182 445 62 l 376 351 l 326 351 q 200 340 272 351 q 177 190 177 326 q 177 28 177 89 q 159 -6 177 8 q 120 -21 141 -21 q 69 22 69 -21 q 89 166 69 71 q 110 311 110 262 l 107 327 q 88 325 101 330 q 70 321 74 321 q 35 335 50 321 q 20 370 20 350 q 119 402 50 402 q 176 664 125 410 q 226 930 227 917 l 243 951 l 299 969 q 347 939 336 957 q 359 880 359 921 q 450 437 359 846 l 488 448 l 522 438 q 536 394 536 416 l 531 377 q 480 351 514 355 l 465 355 l 464 345 q 504 173 464 299 q 544 14 544 47 m 362 422 l 362 436 q 285 787 362 502 q 241 594 276 759 q 207 411 207 429 q 223 410 213 411 l 238 410 q 362 422 266 410 m 430 1037 q 389 1001 430 1001 q 334 1052 364 1001 q 288 1125 296 1119 q 264 1049 283 1116 q 206 1012 253 1012 q 182 1039 182 1012 q 207 1142 182 1064 q 248 1242 233 1220 q 290 1265 264 1265 q 326 1250 309 1265 q 343 1217 343 1235 q 430 1037 430 1046 "},"´":{"x_min":59.890625,"x_max":281.75,"ha":263,"o":"m 281 916 q 212 812 258 881 q 161 719 187 764 q 102 651 123 651 q 66 660 96 651 l 59 675 q 197 946 87 768 q 235 955 215 955 q 265 948 230 955 q 281 916 273 938 "},"Í":{"x_min":59.78125,"x_max":281.328125,"ha":189,"o":"m 187 49 q 160 9 187 33 l 146 10 l 129 4 q 87 120 87 4 q 87 185 87 142 q 87 251 87 229 l 87 376 q 76 592 87 448 q 65 809 65 737 l 69 822 l 87 836 q 104 840 92 836 q 124 844 116 844 q 167 802 160 844 l 167 740 q 167 508 167 662 q 167 277 167 355 l 167 165 q 177 107 167 145 q 187 49 187 69 m 281 1203 q 211 1099 258 1168 q 161 1006 187 1051 q 101 938 123 938 q 66 947 96 938 l 59 962 q 196 1233 86 1055 q 235 1242 214 1242 q 265 1235 229 1242 q 281 1203 273 1225 "},"ì":{"x_min":-14,"x_max":208,"ha":216,"o":"m 208 786 q 201 733 208 768 l 190 679 q 181 440 181 613 l 181 180 q 187 110 181 157 q 193 40 193 63 q 176 3 193 18 q 137 -11 160 -11 q 103 1 119 -11 q 88 32 88 14 q 115 798 88 576 l 168 825 q 195 813 183 825 q 208 786 208 801 m 208 934 l 203 921 q 167 910 169 910 q 93 996 145 910 q 33 1102 63 1048 q -14 1175 -14 1165 q 3 1207 -14 1182 q 33 1214 39 1214 l 70 1205 q 208 934 173 1044 "},"Ú":{"x_min":80,"x_max":424.09375,"ha":438,"o":"m 420 758 q 420 693 420 736 q 420 629 420 651 l 420 405 q 214 -21 420 58 q 80 253 80 30 q 80 418 80 308 q 80 491 80 465 q 80 669 80 551 q 80 847 80 787 l 97 869 l 130 880 q 168 864 162 869 q 180 827 180 854 q 170 692 180 782 q 160 557 160 602 l 160 355 q 173 198 160 287 q 222 65 192 76 q 319 264 294 130 q 334 493 334 344 q 326 630 334 539 q 319 768 319 722 q 338 798 319 783 q 371 814 356 814 q 404 795 389 814 q 420 758 420 776 m 424 1193 q 354 1089 400 1158 q 304 996 330 1041 q 244 928 266 928 q 209 937 238 928 l 202 952 q 339 1223 229 1046 q 377 1232 357 1232 q 407 1225 372 1232 q 424 1193 415 1215 "},"Ý":{"x_min":69,"x_max":490,"ha":479,"o":"m 490 811 q 414 593 490 793 q 339 321 339 394 q 351 71 339 126 l 362 23 q 337 -14 345 -8 q 291 -29 329 -19 q 261 53 261 -3 q 261 88 261 64 q 261 123 261 112 q 252 280 261 196 q 153 512 244 352 q 69 755 69 659 q 101 780 69 780 q 156 741 156 780 q 195 592 156 684 q 273 459 232 507 q 337 638 284 467 q 397 840 387 798 q 415 847 400 840 q 436 855 430 855 q 490 811 490 855 m 396 1131 q 326 1027 373 1096 q 276 934 302 979 q 216 866 237 866 q 180 875 210 866 l 173 890 q 311 1161 201 983 q 349 1170 329 1170 q 379 1163 344 1170 q 396 1131 387 1153 "},"b":{"x_min":18.125,"x_max":554,"ha":517,"o":"m 554 231 q 407 25 554 149 q 181 -95 265 -95 q 133 -50 161 -95 l 147 -14 l 164 -6 l 177 24 q 147 421 177 100 l 131 433 l 112 471 l 116 490 l 142 506 l 142 549 q 133 646 142 571 q 120 730 125 720 q 63 704 99 704 q 18 749 29 704 l 46 781 q 146 825 79 797 q 211 839 171 833 q 277 849 241 843 q 350 863 322 857 q 442 850 413 863 q 486 774 486 831 q 412 623 486 710 q 284 508 352 552 q 295 504 277 504 q 472 416 390 504 q 554 231 554 328 m 395 761 q 388 782 388 767 q 356 792 363 792 q 209 765 283 792 q 207 754 209 761 q 206 743 206 748 q 211 648 206 704 q 226 556 218 577 q 331 645 283 592 q 395 761 395 714 m 464 232 q 398 374 464 316 q 249 433 332 433 q 233 428 246 433 l 233 414 q 268 21 233 244 q 396 102 334 42 q 464 232 464 169 "},"q":{"x_min":44,"x_max":516,"ha":517,"o":"m 516 387 q 491 184 516 258 q 382 16 462 95 q 420 -91 382 -16 q 458 -189 458 -165 q 418 -224 447 -205 l 400 -224 l 369 -208 l 300 -15 q 90 141 149 13 q 44 412 44 238 q 159 820 44 690 q 207 815 175 815 q 255 833 225 815 q 270 831 262 829 q 285 836 282 836 q 471 669 410 836 q 516 387 516 547 m 428 395 q 396 610 428 491 q 291 769 355 769 q 201 713 234 769 l 174 699 q 128 401 128 553 q 155 211 128 309 q 260 75 193 75 l 271 77 q 244 169 268 93 q 225 261 225 229 q 244 292 225 284 q 282 301 251 295 l 304 283 q 354 102 317 222 q 415 233 396 122 q 428 395 428 304 "},"Ö":{"x_min":42,"x_max":464,"ha":464,"o":"m 464 405 q 412 140 464 282 q 251 -39 346 -39 q 85 121 144 -39 q 42 371 42 241 q 65 618 42 445 q 114 847 91 817 q 155 863 124 863 q 295 853 269 863 q 421 653 370 824 q 464 405 464 513 m 381 402 q 340 640 381 522 q 195 795 287 795 q 145 586 166 769 q 129 353 129 436 q 157 176 129 269 q 261 51 195 51 l 278 51 q 352 218 320 98 q 381 402 381 324 m 369 975 q 349 933 369 949 q 306 917 330 917 q 253 956 273 917 q 240 999 240 980 q 258 1032 240 1016 q 292 1048 276 1048 q 343 1024 318 1048 q 369 975 369 1000 m 206 1000 q 139 929 206 929 q 102 955 121 929 q 83 1002 83 982 q 131 1056 83 1042 q 149 1063 156 1061 q 173 1050 159 1063 q 195 1030 184 1048 q 206 1000 206 1013 "},"z":{"x_min":54,"x_max":537,"ha":522,"o":"m 537 778 q 362 430 537 767 q 192 58 188 93 l 199 56 q 284 62 228 56 q 368 68 339 68 q 422 74 386 68 q 476 81 458 81 q 531 55 482 81 l 536 37 q 523 5 536 16 q 492 -12 518 1 q 421 3 427 1 q 157 -28 206 3 l 149 -26 l 115 -33 q 73 -18 93 -33 q 54 16 54 -3 q 86 69 54 25 q 123 124 118 112 l 277 432 q 410 729 395 672 q 228 694 285 729 q 198 699 222 697 q 164 741 183 701 l 194 778 l 206 776 l 222 784 q 239 780 228 780 q 300 790 258 780 q 357 801 342 801 q 364 798 363 801 l 480 824 q 516 810 495 827 q 537 778 537 794 "},"™":{"x_min":59,"x_max":841.3125,"ha":832,"o":"m 841 635 q 823 612 841 622 q 792 602 805 602 q 755 627 773 602 q 737 700 748 657 q 705 786 726 728 q 675 742 699 786 q 645 689 657 709 q 600 677 608 677 q 560 711 588 677 q 516 756 527 751 l 516 706 q 516 638 516 670 l 516 569 q 481 558 489 558 q 446 595 460 558 q 440 641 440 616 l 440 862 q 457 894 440 880 q 473 895 463 894 l 490 895 q 545 850 507 895 l 598 790 q 632 837 612 794 q 652 895 652 875 q 692 916 683 916 q 760 864 734 916 q 795 776 778 820 q 841 635 841 659 m 399 828 q 358 792 399 815 q 305 811 336 811 q 251 813 254 811 l 246 811 q 262 663 250 760 q 271 595 271 617 q 224 562 271 562 q 180 607 189 562 q 177 681 177 621 q 172 728 177 696 q 167 776 167 760 q 169 789 167 780 q 172 802 172 798 q 169 812 172 806 l 120 812 q 59 845 59 812 q 169 870 59 870 q 329 873 169 873 q 375 860 351 873 q 399 828 399 848 "},"ã":{"x_min":27,"x_max":589,"ha":580,"o":"m 589 314 l 576 284 q 528 253 549 272 l 521 255 q 516 242 516 255 q 550 109 516 199 q 585 -21 585 20 q 570 -59 585 -42 q 536 -77 556 -77 q 475 30 475 -77 q 450 151 475 48 q 419 261 425 254 l 408 261 q 303 250 368 261 q 197 237 217 237 q 167 132 183 224 q 155 19 155 60 q 110 -17 119 -17 q 74 -5 91 -17 q 57 24 57 6 q 79 114 57 50 q 101 202 101 178 l 101 223 l 73 223 q 46 239 66 223 q 27 263 27 256 q 59 301 27 289 q 114 306 84 309 l 119 316 q 165 495 141 371 q 206 678 192 633 q 252 836 252 831 q 245 928 252 867 q 268 947 253 946 q 295 954 290 951 l 333 937 q 413 647 367 836 q 489 356 462 443 q 502 352 492 352 l 522 361 q 529 359 526 359 q 539 365 534 359 q 589 314 589 353 m 404 334 q 363 521 404 354 q 310 729 330 654 q 202 308 214 430 q 303 316 240 308 l 401 328 q 404 334 402 330 m 488 1181 q 485 1142 488 1168 q 483 1104 483 1117 q 458 1021 483 1050 q 386 972 439 996 q 371 976 378 976 q 363 974 367 976 q 302 1022 330 974 q 261 1096 294 1035 q 243 1042 257 1090 q 191 1013 235 1013 q 164 1061 164 1013 q 191 1147 164 1097 q 256 1203 223 1203 q 265 1202 258 1203 l 275 1202 q 336 1136 311 1189 q 383 1058 364 1074 q 405 1131 398 1069 q 419 1215 413 1203 q 450 1232 423 1223 q 483 1212 461 1228 q 488 1181 488 1183 "},"æ":{"x_min":27,"x_max":740.671875,"ha":692,"o":"m 740 -1 q 637 -61 732 -21 q 510 -139 536 -104 l 480 -147 l 434 -126 q 391 89 415 -29 q 340 263 360 212 l 333 264 q 160 203 276 249 q 118 -3 133 84 q 71 -29 114 -7 q 27 10 27 -13 q 112 372 27 67 q 206 754 197 677 q 222 828 206 781 l 254 846 q 307 832 273 840 q 346 827 329 827 q 466 844 410 827 q 500 838 488 838 q 510 839 506 838 l 525 806 l 517 761 q 481 744 502 744 l 454 744 l 439 758 l 404 763 q 325 757 345 763 q 321 745 321 756 q 348 645 326 724 q 371 503 356 617 q 405 369 383 409 l 410 364 l 432 364 q 517 385 450 364 q 599 416 579 406 l 615 411 q 627 416 620 416 q 659 364 659 416 q 629 319 659 353 l 622 320 q 529 309 612 309 q 427 285 446 309 l 470 117 q 522 -27 504 -14 l 529 -27 q 693 59 584 0 l 729 46 q 740 -1 737 28 m 320 334 l 320 361 q 310 413 320 381 q 295 466 303 436 q 263 634 287 520 q 221 476 258 630 q 185 305 185 323 l 186 296 l 196 295 q 320 334 238 303 "},"®":{"x_min":73,"x_max":849,"ha":838,"o":"m 849 426 q 727 116 849 240 q 424 -7 606 -7 q 171 86 269 -7 q 73 337 73 179 q 370 709 73 565 q 497 774 493 769 q 517 769 508 769 q 527 770 523 769 q 564 739 564 758 q 634 719 584 728 q 707 695 685 709 q 808 578 767 658 q 849 426 849 499 m 762 415 q 720 572 762 501 q 598 665 674 653 q 497 678 569 669 l 452 690 q 381 658 437 690 q 312 613 331 628 q 157 331 157 487 q 232 135 157 208 q 429 62 308 62 q 670 162 578 62 q 762 415 762 262 m 625 268 q 610 240 625 257 q 585 223 596 223 q 500 275 565 223 l 412 343 l 404 341 l 403 333 q 411 278 403 315 q 419 223 419 241 q 406 200 419 211 q 379 190 392 190 q 332 220 341 190 q 318 444 318 277 l 318 506 q 360 536 318 536 q 392 545 369 536 q 426 554 415 554 q 577 497 577 554 q 494 384 577 440 q 560 328 495 376 q 625 268 625 280 m 485 483 q 457 489 476 489 q 398 462 434 489 l 398 451 q 403 420 398 434 l 411 420 q 456 441 431 420 q 485 483 480 462 "},"É":{"x_min":16,"x_max":431,"ha":409,"o":"m 431 870 q 414 834 431 865 q 259 795 363 824 l 252 797 q 177 777 206 797 q 160 516 160 613 l 165 502 l 194 502 q 323 519 237 502 l 330 527 l 357 537 q 389 514 375 533 q 404 477 404 495 q 361 432 404 432 q 333 432 352 432 q 304 433 313 433 q 165 433 301 433 l 159 398 q 179 184 159 288 q 270 32 209 32 q 296 141 296 52 q 292 216 296 166 q 288 290 288 265 q 305 345 288 333 q 363 358 318 354 q 389 311 389 344 q 380 98 389 152 q 278 -50 357 -50 q 73 405 73 -50 q 16 435 54 408 l 16 451 q 36 482 16 469 q 73 503 55 492 q 84 605 74 520 q 91 712 91 670 q 89 749 91 733 q 35 803 35 767 q 161 878 35 842 l 188 858 l 195 858 q 382 909 259 880 q 431 870 431 891 m 368 1200 q 298 1096 345 1166 q 248 1003 274 1049 q 188 936 210 936 q 153 945 183 936 l 146 960 q 283 1231 173 1053 q 322 1240 301 1239 q 352 1232 316 1240 q 368 1200 360 1223 "},"~":{"x_min":65,"x_max":616,"ha":627,"o":"m 616 428 q 576 287 616 353 q 461 212 530 212 q 359 263 402 212 q 293 369 339 287 q 225 461 256 437 l 218 461 q 162 369 177 415 q 152 262 152 331 q 132 233 152 246 q 97 220 113 220 q 65 283 65 220 q 111 446 65 360 q 232 545 164 545 q 349 434 273 545 q 458 283 443 296 l 476 283 q 527 402 517 321 q 532 535 532 433 q 565 579 532 579 q 616 428 616 579 "},"¡":{"x_min":75,"x_max":198.796875,"ha":206,"o":"m 86 659 q 107 695 84 662 q 141 708 133 708 q 177 691 162 708 q 192 653 192 674 q 182 612 192 641 q 175 376 175 556 q 198 37 175 155 q 170 10 177 12 l 135 10 q 103 53 108 22 q 102 111 102 61 q 97 180 102 134 q 93 250 93 226 l 93 440 q 93 522 93 467 q 93 605 93 577 l 86 659 m 75 811 q 122 863 75 836 q 152 849 133 863 l 163 849 q 188 815 186 817 q 169 765 188 788 q 125 742 151 742 q 88 764 102 742 q 75 811 75 786 "},"[":{"x_min":46.609375,"x_max":309.578125,"ha":289,"o":"m 308 915 q 212 870 291 891 q 153 834 153 852 q 153 502 153 723 q 153 169 153 280 q 172 26 153 97 l 184 10 q 229 10 206 10 q 268 -6 260 5 q 277 -31 277 -18 q 257 -66 277 -36 l 217 -72 q 144 -65 157 -72 l 133 -72 l 125 -72 l 82 -26 l 82 10 q 82 529 82 122 q 57 705 82 569 q 46 880 46 806 q 90 917 46 901 q 140 929 121 929 q 151 927 146 929 q 241 964 181 938 q 296 955 259 964 q 308 915 313 933 "},"L":{"x_min":82,"x_max":313,"ha":293,"o":"m 313 51 q 231 4 313 4 q 185 -10 207 4 q 147 -24 163 -24 q 105 -6 128 -24 q 82 28 82 10 q 84 55 82 37 q 86 83 86 73 q 86 404 86 189 q 86 726 86 619 q 86 829 86 792 q 130 849 107 849 q 172 824 154 849 q 172 782 174 808 q 168 742 168 753 l 168 632 l 168 355 q 186 79 168 188 l 200 79 q 228 83 210 79 q 256 87 246 87 q 291 78 275 87 q 313 51 313 67 "}," ":{"x_min":0,"x_max":0,"ha":536},"%":{"x_min":12,"x_max":720,"ha":683,"o":"m 720 182 q 674 68 720 116 q 564 21 628 21 q 465 59 510 21 q 420 151 420 97 q 463 268 420 191 q 541 359 507 344 q 600 372 570 372 q 679 293 634 372 q 720 182 720 220 m 280 605 q 238 491 280 540 q 133 443 197 443 q 12 585 12 443 q 54 703 12 640 q 146 795 96 767 q 188 784 163 792 q 206 755 197 781 q 219 720 219 722 q 280 605 280 631 m 488 852 q 385 399 488 722 q 283 -69 283 76 q 288 -97 283 -91 l 288 -106 q 222 -147 259 -147 q 176 -108 200 -147 q 197 -58 183 -94 q 244 164 217 7 q 345 618 285 391 q 392 848 383 759 q 441 894 398 894 q 488 852 488 894 m 629 172 q 586 283 629 237 q 550 259 554 265 q 526 209 541 247 q 511 158 511 172 q 530 114 511 133 q 575 96 550 96 q 614 120 600 96 q 629 172 629 145 m 186 590 q 146 681 186 618 q 126 666 139 679 q 102 568 102 597 q 127 521 102 521 l 156 521 q 186 590 186 554 "},"P":{"x_min":52.640625,"x_max":441,"ha":418,"o":"m 441 654 q 350 426 441 523 q 148 283 289 359 l 148 146 q 154 66 148 119 q 160 -12 160 14 q 141 -46 160 -32 q 101 -59 123 -59 q 52 3 60 -59 l 54 11 q 54 104 54 76 q 54 455 54 221 q 54 806 54 690 q 150 851 54 851 q 334 802 244 851 q 441 654 441 745 m 351 654 q 273 752 351 716 q 142 782 210 782 l 134 769 l 134 712 q 134 541 134 639 l 134 372 l 155 369 q 296 484 241 407 q 351 654 351 561 "},"À":{"x_min":20,"x_max":544.5,"ha":536,"o":"m 544 14 q 524 -21 544 -6 q 483 -37 504 -37 l 462 -32 l 439 -1 l 441 15 q 416 182 445 62 l 376 352 l 326 352 q 200 340 272 352 q 177 190 177 326 q 177 28 177 89 q 159 -6 177 8 q 120 -21 141 -21 q 69 22 69 -21 q 89 166 69 71 q 110 311 110 262 l 107 328 q 88 325 101 330 q 70 321 74 321 q 35 335 50 321 q 20 371 20 350 q 119 402 50 402 q 176 664 124 410 q 226 930 227 917 l 243 951 l 299 969 q 347 939 335 958 q 359 880 359 921 q 450 437 359 846 l 488 448 l 522 438 q 536 395 536 416 l 531 378 q 480 352 514 356 l 465 356 l 464 346 q 504 174 464 300 q 544 14 544 47 m 362 422 l 362 436 q 285 787 362 502 q 241 594 276 759 q 207 411 207 429 q 223 410 213 411 l 238 410 q 362 422 266 410 m 344 1032 l 340 1019 q 303 1008 306 1008 q 230 1094 281 1008 q 170 1200 200 1146 q 122 1273 122 1263 q 139 1305 122 1280 q 170 1312 175 1312 l 207 1303 q 344 1032 310 1142 "},"_":{"x_min":24,"x_max":453,"ha":423,"o":"m 453 20 q 434 -13 453 1 q 397 -28 416 -28 q 369 -21 386 -28 q 345 -12 353 -14 q 286 -10 337 -10 q 225 -12 236 -10 q 160 -10 201 -10 q 94 -10 119 -10 q 24 31 24 -10 q 51 69 24 45 q 344 69 315 69 q 372 71 356 69 q 391 68 393 68 q 406 71 379 68 q 436 53 420 73 q 453 20 453 34 "},"ñ":{"x_min":73,"x_max":531.46875,"ha":523,"o":"m 531 912 q 492 619 492 797 q 492 318 492 539 q 480 173 492 269 q 469 29 469 78 q 449 -14 469 3 q 402 -33 429 -33 l 365 -23 q 356 14 358 -9 q 352 51 353 44 q 250 330 342 89 q 148 586 158 571 l 148 489 q 158 279 148 417 q 172 68 172 136 q 178 36 172 57 q 185 5 185 15 q 167 -32 185 -14 q 130 -51 150 -51 q 95 -33 118 -51 q 73 -3 73 -16 q 73 49 73 14 q 74 103 74 85 q 74 415 74 207 q 74 728 74 624 q 80 800 74 783 q 134 831 90 831 q 164 810 139 831 q 271 508 197 705 l 384 210 q 425 901 425 432 q 455 964 425 944 l 484 964 l 523 940 l 531 912 m 411 1122 q 408 1084 411 1109 q 405 1045 405 1058 q 380 962 405 991 q 308 913 361 937 q 293 917 300 917 q 285 915 289 917 q 224 964 252 915 q 183 1037 216 976 q 165 983 179 1032 q 113 954 157 954 q 86 1002 86 954 q 113 1088 86 1038 q 178 1144 145 1144 q 187 1143 180 1144 l 197 1143 q 258 1077 233 1130 q 305 1000 286 1015 q 327 1072 320 1011 q 341 1156 335 1144 q 372 1173 345 1164 q 405 1153 383 1169 q 411 1122 411 1124 "},"+":{"x_min":51.5,"x_max":496.3125,"ha":484,"o":"m 496 407 q 444 351 478 351 q 376 362 443 352 q 338 365 350 365 q 319 362 327 365 q 310 266 310 349 q 316 234 310 255 q 322 203 322 213 q 308 173 322 188 q 279 161 295 159 q 259 155 264 155 q 223 249 223 155 q 223 289 223 266 q 223 317 223 312 l 223 347 l 210 347 q 161 343 194 347 q 112 340 129 340 q 96 341 108 340 l 81 341 q 51 381 69 353 l 66 416 q 129 429 92 429 q 154 425 137 429 q 179 421 171 421 q 226 426 171 421 l 232 431 l 232 521 q 244 606 232 584 q 277 613 259 612 q 318 603 266 613 q 328 571 328 585 q 323 514 328 552 q 318 456 318 476 l 318 441 l 322 437 l 334 437 q 381 444 358 437 l 437 461 q 496 407 470 461 "},"½":{"x_min":49,"x_max":720,"ha":672,"o":"m 720 31 q 714 9 720 20 q 676 -6 684 -6 q 651 -1 668 -6 q 628 4 635 4 q 602 3 602 4 q 578 3 568 3 q 558 5 571 3 q 539 8 545 8 q 503 27 523 8 q 483 61 483 46 q 491 82 485 70 q 526 135 511 95 q 539 199 539 169 q 491 211 519 216 l 483 218 q 435 255 435 218 q 445 282 435 259 q 517 300 468 289 l 523 294 q 601 269 568 294 q 634 201 634 244 q 600 89 634 160 l 601 80 q 676 70 629 80 q 691 66 685 66 q 720 31 720 66 m 191 481 q 177 452 185 471 q 137 434 141 435 q 100 445 118 434 q 78 474 82 457 q 78 566 78 506 q 60 642 73 582 q 49 717 49 691 l 54 739 q 90 753 66 744 q 125 744 102 749 q 144 677 144 714 q 170 525 144 625 q 181 506 171 520 q 191 481 191 493 m 484 735 q 311 199 345 330 q 246 -74 292 113 q 195 -108 238 -108 q 148 -59 148 -108 q 263 314 163 -39 q 396 748 366 682 q 420 776 408 776 q 470 764 426 776 l 484 735 "},"Æ":{"x_min":47.921875,"x_max":734,"ha":685,"o":"m 734 88 q 646 34 734 63 q 565 8 606 20 q 491 -33 523 -8 q 449 -54 472 -48 q 393 -27 419 -43 q 389 51 389 -15 q 370 150 389 70 q 344 250 352 225 l 337 253 q 243 227 318 253 q 159 191 168 202 q 150 37 150 101 q 130 -4 150 11 q 86 -21 111 -21 q 47 29 66 -21 q 117 393 71 149 q 158 763 158 615 q 158 831 158 799 q 166 880 160 836 q 205 907 168 907 q 246 895 220 907 q 287 883 272 883 q 405 896 367 883 l 429 896 q 517 911 474 896 q 576 861 576 897 q 520 818 576 818 q 481 821 506 818 q 442 825 455 825 q 281 801 350 825 l 281 791 q 339 588 281 776 q 411 350 404 380 q 424 346 413 346 q 535 377 443 346 q 649 422 618 407 q 702 376 702 401 q 630 330 702 330 q 535 305 620 330 q 432 273 449 280 l 432 266 q 478 69 432 250 l 489 64 q 594 98 520 64 q 679 133 668 133 q 712 116 690 133 q 734 88 734 99 m 329 323 q 238 651 306 456 q 205 472 235 645 l 175 295 l 178 283 q 329 323 224 288 "},"Ë":{"x_min":16,"x_max":431,"ha":409,"o":"m 431 870 q 414 834 431 865 q 259 795 362 824 l 252 797 q 177 777 206 797 q 160 516 160 613 l 165 502 l 194 502 q 323 519 237 502 l 330 527 l 357 537 q 389 514 375 533 q 404 477 404 495 q 361 432 404 432 q 332 432 351 432 q 304 433 313 433 q 165 433 301 433 l 159 398 q 179 184 159 288 q 270 32 209 32 q 296 141 296 52 q 292 216 296 166 q 288 290 288 265 q 305 345 288 333 q 362 358 317 354 q 389 311 389 344 q 380 98 389 152 q 278 -50 357 -50 q 73 405 73 -50 q 16 435 53 408 l 16 451 q 36 482 16 469 q 73 503 55 492 q 84 605 74 520 q 91 712 91 670 q 89 749 91 733 q 35 803 35 767 q 161 878 35 842 l 188 858 l 195 858 q 382 909 259 880 q 431 870 431 891 m 349 1012 q 329 970 349 987 q 286 954 310 954 q 233 992 254 954 q 220 1036 220 1016 q 238 1068 220 1052 q 272 1085 256 1085 q 323 1062 298 1085 q 349 1012 349 1039 m 186 1037 q 119 965 186 965 q 82 992 101 965 q 63 1038 63 1019 q 112 1093 63 1079 q 130 1100 137 1100 q 153 1087 139 1100 q 175 1068 164 1086 q 186 1037 186 1050 "},"'":{"x_min":44,"x_max":206,"ha":201,"o":"m 206 611 q 188 581 206 594 q 154 568 171 568 q 121 573 151 569 q 105 605 106 595 q 94 697 101 647 q 64 811 90 713 q 44 919 44 887 l 46 924 q 107 943 80 943 q 143 919 127 943 q 142 897 142 908 q 158 787 142 869 q 185 674 174 711 q 197 644 186 672 q 206 611 206 624 "},"ª":{"x_min":60,"x_max":414,"ha":417,"o":"m 414 787 q 369 753 414 753 q 326 780 341 753 l 300 828 q 247 792 247 792 q 185 776 217 776 q 132 799 156 776 q 108 852 108 823 q 143 923 108 878 q 204 978 178 968 q 262 991 220 984 q 300 974 270 982 q 336 946 326 967 q 335 939 335 943 q 374 863 335 913 q 414 787 414 812 m 414 638 q 396 598 414 615 q 355 582 378 582 q 331 589 348 582 q 305 596 314 596 q 227 586 295 596 q 155 576 159 577 q 91 563 125 563 q 72 577 84 563 q 60 598 60 591 q 69 622 60 615 q 174 645 87 634 q 285 657 257 657 q 341 673 303 657 q 359 672 347 672 l 363 676 q 396 666 374 670 q 414 638 414 644 m 241 896 l 241 907 q 234 912 238 912 q 209 884 224 905 q 193 855 193 864 l 193 848 l 203 845 q 225 868 209 848 q 241 896 241 889 "},"ð":{"x_min":-1,"x_max":471,"ha":463,"o":"m 471 516 l 471 474 q 339 127 471 328 q 261 33 321 101 q 193 -65 210 -23 l 158 -86 q 91 -36 107 -79 q 94 -2 94 -11 q 94 383 94 41 q 69 383 65 383 q -1 431 -1 376 q 26 474 -1 446 q 75 470 57 470 l 75 820 q 56 843 65 824 q 47 865 47 861 q 87 909 47 878 l 95 909 l 118 906 l 221 872 q 387 770 331 838 q 471 516 471 671 m 384 528 q 325 714 384 638 q 162 822 266 790 q 154 774 154 792 l 154 693 q 154 459 154 632 q 194 450 179 456 q 209 448 204 448 q 238 460 221 448 q 256 456 251 457 q 272 460 258 457 q 302 442 286 461 q 319 409 319 423 q 300 375 319 389 q 262 361 282 361 q 235 367 251 361 q 212 375 219 374 q 174 377 205 377 q 174 63 174 245 q 325 274 267 144 q 384 528 384 405 "},"T":{"x_min":26,"x_max":457,"ha":435,"o":"m 457 796 q 438 761 457 775 q 398 748 420 748 q 380 753 392 748 q 363 759 368 759 q 314 759 346 759 q 266 759 282 759 q 254 630 254 746 q 254 290 254 481 l 254 166 q 265 92 254 142 q 277 17 277 42 q 259 -6 277 8 q 229 -21 241 -21 q 181 1 192 -21 q 174 102 174 15 q 174 209 174 156 q 174 366 174 313 q 174 555 174 428 l 174 742 l 156 748 l 135 742 q 125 744 130 744 q 78 732 107 744 q 26 778 26 744 q 36 803 27 782 q 127 818 91 818 q 197 823 150 818 q 266 828 243 828 q 282 831 270 834 q 298 828 292 829 q 388 845 368 828 l 398 841 q 410 844 405 844 q 443 830 429 844 q 457 796 457 816 "},"Þ":{"x_min":48,"x_max":372,"ha":363,"o":"m 372 409 q 319 272 372 359 q 215 187 261 177 q 178 173 207 180 q 140 161 150 166 q 140 82 140 127 l 140 2 q 124 -19 140 -10 q 93 -29 108 -29 q 48 -2 64 -29 l 48 779 q 61 797 48 790 q 83 810 75 804 l 90 810 q 135 754 135 810 q 135 724 135 746 q 135 691 135 702 l 135 664 q 308 586 244 652 q 372 409 372 519 m 281 423 q 248 529 281 480 q 157 582 210 582 l 144 580 q 138 508 138 566 l 138 376 q 138 297 138 347 q 138 243 138 258 l 146 239 l 154 239 q 216 275 181 239 q 260 334 248 305 q 281 423 281 380 "},"j":{"x_min":49,"x_max":532,"ha":510,"o":"m 532 847 q 491 808 505 812 q 458 818 481 818 l 427 804 l 422 806 l 356 781 q 347 758 347 761 q 359 558 347 691 q 372 358 372 424 l 372 166 q 351 16 372 66 q 246 -75 322 -52 q 115 66 185 -52 q 49 252 49 181 q 113 290 49 290 q 158 210 140 290 q 193 109 178 122 q 260 30 211 52 q 282 277 282 72 q 282 531 282 390 q 275 647 282 602 q 247 750 264 736 l 239 750 q 175 730 222 750 q 106 711 128 711 q 49 744 49 711 l 49 751 q 100 786 76 786 q 117 781 108 786 q 247 820 160 798 l 258 836 q 380 863 299 844 q 431 879 428 879 l 445 897 q 470 904 452 897 q 494 911 488 911 q 532 890 512 911 l 532 847 "},"1":{"x_min":43.640625,"x_max":320.671875,"ha":318,"o":"m 320 15 q 264 -37 320 -37 q 237 -28 257 -37 q 214 -14 217 -20 q 206 287 206 1 q 206 640 206 525 q 206 679 206 649 q 199 719 206 704 q 192 758 199 743 l 188 760 q 168 741 184 760 q 143 712 152 722 q 123 672 143 702 l 113 671 l 103 661 l 96 661 q 61 671 85 671 l 43 696 q 110 791 46 715 q 181 895 174 866 q 219 907 216 907 q 259 904 231 907 q 283 865 267 890 q 288 819 288 840 q 288 520 288 719 q 288 221 288 321 q 304 118 288 186 q 320 15 320 50 "},"ä":{"x_min":27,"x_max":589,"ha":580,"o":"m 589 314 l 576 284 q 528 253 549 271 l 521 255 q 516 242 516 255 q 550 109 516 199 q 585 -21 585 20 q 570 -59 585 -42 q 536 -77 556 -77 q 475 30 475 -77 q 450 150 475 48 q 418 260 425 253 l 408 260 q 303 250 368 260 q 197 237 217 237 q 167 132 183 224 q 155 19 155 60 q 110 -17 119 -17 q 74 -5 91 -17 q 57 24 57 6 q 79 114 57 50 q 101 202 101 178 l 101 223 l 73 223 q 46 239 66 223 q 27 263 27 256 q 59 301 27 289 q 114 306 84 309 l 119 316 q 165 495 141 371 q 206 678 193 633 q 252 836 252 831 q 245 928 252 867 q 268 947 253 946 q 295 954 289 952 l 333 938 q 413 647 367 836 q 490 356 462 443 q 502 352 492 352 l 522 361 q 529 359 526 359 q 539 365 534 359 q 589 314 589 353 m 404 334 q 363 521 404 354 q 310 729 330 654 q 202 308 215 430 q 303 316 240 308 l 401 328 q 404 334 402 330 m 438 1035 q 418 993 438 1010 q 375 977 399 977 q 322 1015 342 977 q 309 1059 309 1039 q 327 1091 309 1075 q 361 1108 345 1108 q 412 1085 387 1108 q 438 1035 438 1062 m 275 1060 q 208 988 275 988 q 171 1015 190 988 q 152 1061 152 1042 q 201 1116 152 1102 q 219 1123 226 1123 q 242 1110 228 1123 q 264 1091 253 1109 q 275 1060 275 1073 "},"<":{"x_min":63,"x_max":465,"ha":442,"o":"m 465 575 q 441 534 465 549 q 360 495 418 520 q 275 453 302 470 q 180 369 180 394 q 255 231 180 332 q 331 116 331 130 q 312 82 331 95 q 272 69 294 69 l 257 70 q 63 385 235 92 q 205 498 63 410 q 381 619 363 594 l 406 619 q 446 608 428 619 q 465 575 465 597 "},"£":{"x_min":53,"x_max":495,"ha":462,"o":"m 495 14 q 476 -22 495 -10 q 438 -37 457 -29 q 280 109 375 23 q 255 6 272 74 q 190 -61 238 -61 q 99 -5 145 -61 q 53 98 53 50 q 70 181 53 135 q 119 243 90 236 l 127 254 q 143 254 135 257 q 159 253 156 253 q 195 257 163 253 q 196 344 195 332 l 188 348 l 154 348 q 123 337 138 348 q 69 356 105 340 l 62 376 l 70 408 q 122 432 86 418 l 156 424 q 196 435 176 424 q 229 680 196 578 q 386 842 281 842 q 437 803 437 842 q 426 775 437 787 q 401 763 416 763 q 392 764 397 763 l 379 751 q 300 612 327 739 q 281 439 281 523 l 299 432 q 405 446 344 446 q 453 403 434 446 q 408 346 439 346 q 364 353 393 346 q 320 361 336 361 q 283 356 299 361 q 283 297 283 314 l 283 207 q 404 116 323 177 q 495 14 495 45 m 193 164 q 167 182 172 182 l 158 182 q 139 142 148 174 q 133 96 133 116 q 164 38 133 57 l 173 41 q 193 164 193 111 "},"t":{"x_min":30,"x_max":486,"ha":466,"o":"m 486 855 q 458 813 486 819 l 408 813 q 318 796 401 813 q 306 793 313 794 l 301 788 q 301 643 301 740 q 301 497 301 546 q 301 315 301 436 q 301 133 301 194 q 312 75 301 114 q 323 17 323 36 q 300 -22 323 -7 q 252 -37 278 -37 l 230 -27 l 218 8 l 221 49 q 221 687 221 342 q 212 776 221 735 l 206 779 q 148 767 186 779 q 91 756 110 756 q 51 771 72 756 q 30 804 30 786 q 91 846 30 834 q 145 836 105 836 q 216 846 169 836 q 288 856 263 856 q 370 876 314 856 q 453 896 426 896 q 475 882 465 896 q 486 855 486 869 "},"ù":{"x_min":71,"x_max":430,"ha":448,"o":"m 430 765 l 430 561 q 349 57 430 185 q 308 14 338 39 q 268 -23 277 -9 l 254 -24 q 195 -22 235 -22 q 81 176 106 25 q 71 425 71 238 q 71 579 71 476 q 71 734 71 683 q 83 765 71 756 l 118 780 q 157 770 147 777 q 172 735 172 762 q 162 582 172 684 q 153 429 153 480 q 163 225 153 316 q 230 63 182 63 q 322 293 291 63 q 343 580 343 444 q 335 671 343 611 q 328 762 328 731 q 338 801 328 780 q 381 815 374 815 q 412 796 394 815 q 430 765 430 778 m 295 889 l 291 876 q 254 865 257 865 q 181 951 233 865 q 121 1057 151 1003 q 74 1130 74 1120 q 91 1162 74 1137 q 121 1169 127 1169 l 158 1160 q 295 889 261 999 "},"W":{"x_min":22.921875,"x_max":645,"ha":649,"o":"m 645 864 q 609 437 645 722 q 574 9 574 152 q 501 -43 574 -43 q 355 528 439 -11 l 349 528 q 327 300 345 486 q 310 40 310 114 q 314 -4 310 5 q 288 -47 301 -44 q 261 -59 267 -51 l 236 -56 l 211 -30 q 207 7 207 -24 q 114 407 207 95 q 22 812 22 718 q 80 850 22 850 q 110 831 84 850 q 177 554 136 773 q 239 250 221 312 q 272 544 272 361 q 296 841 272 763 q 331 879 315 865 q 368 876 344 879 q 394 843 387 872 q 401 795 397 827 q 495 240 430 594 q 527 469 527 289 q 531 761 527 722 q 601 905 551 905 q 631 892 617 905 q 645 864 645 880 "},"ï":{"x_min":8,"x_max":294,"ha":217,"o":"m 208 786 q 201 733 208 768 l 190 679 q 181 440 181 613 l 181 180 q 187 110 181 157 q 193 40 193 63 q 176 3 193 18 q 137 -11 160 -11 q 103 1 119 -11 q 88 32 88 14 q 115 798 88 576 l 169 825 q 195 813 183 825 q 208 786 208 801 m 294 984 q 274 942 294 959 q 231 926 255 926 q 177 964 198 926 q 165 1008 165 988 q 182 1040 165 1024 q 217 1057 200 1057 q 268 1034 242 1057 q 294 984 294 1011 m 131 1009 q 64 937 131 937 q 26 964 44 937 q 8 1010 8 991 q 56 1065 8 1051 q 74 1072 81 1072 q 97 1059 82 1072 q 119 1040 108 1058 q 131 1009 131 1022 "},">":{"x_min":69,"x_max":392,"ha":383,"o":"m 392 369 q 379 333 392 345 q 308 265 344 298 q 240 186 272 227 q 141 69 168 90 l 132 73 q 114 68 125 68 q 83 81 97 68 q 69 111 69 94 q 108 161 69 152 q 277 370 223 273 q 164 484 272 377 q 79 599 79 569 q 94 622 79 612 q 123 633 110 633 q 159 618 141 633 q 181 585 178 603 q 348 424 227 526 q 374 401 357 423 q 392 369 392 378 "},"v":{"x_min":43.09375,"x_max":451,"ha":447,"o":"m 451 806 q 442 761 451 791 q 430 717 432 724 l 354 376 q 306 44 306 158 q 310 30 310 38 q 296 -8 310 10 q 265 -28 282 -28 q 252 -26 263 -23 q 240 -29 246 -28 q 196 19 216 -29 q 115 406 156 158 q 43 795 67 689 l 52 818 l 75 828 q 109 824 104 825 q 137 802 126 818 q 171 514 137 667 q 239 233 193 420 l 243 231 q 361 835 299 527 q 425 855 366 843 q 451 806 451 821 "},"û":{"x_min":71,"x_max":430,"ha":448,"o":"m 430 765 l 430 561 q 349 57 430 185 q 308 14 338 39 q 268 -23 277 -9 l 254 -24 q 195 -22 235 -22 q 81 176 106 25 q 71 425 71 238 q 71 579 71 476 q 71 734 71 683 q 83 765 71 756 l 118 780 q 157 770 147 777 q 172 735 172 762 q 162 582 172 684 q 153 429 153 480 q 163 225 153 316 q 230 63 182 63 q 322 293 291 63 q 343 580 343 444 q 335 671 343 611 q 328 762 328 731 q 338 801 328 780 q 381 815 374 815 q 412 796 394 815 q 430 765 430 778 m 362 903 q 321 867 362 867 q 266 918 296 867 q 220 991 228 984 q 196 915 215 982 q 138 878 185 878 q 114 905 114 878 q 139 1008 114 930 q 180 1108 165 1086 q 222 1130 196 1130 q 258 1116 241 1130 q 275 1083 275 1101 q 362 903 362 912 "},"Ò":{"x_min":42,"x_max":464,"ha":464,"o":"m 464 405 q 412 140 464 282 q 251 -39 346 -39 q 85 121 144 -39 q 42 371 42 241 q 65 618 42 445 q 114 847 90 817 q 154 863 124 863 q 295 853 269 863 q 421 653 370 824 q 464 405 464 513 m 381 402 q 340 640 381 522 q 194 795 287 795 q 145 586 165 769 q 129 353 129 436 q 157 176 129 269 q 261 51 195 51 l 277 51 q 352 218 319 98 q 381 402 381 324 m 282 960 l 278 947 q 242 936 244 936 q 168 1022 220 936 q 108 1128 138 1074 q 61 1201 61 1191 q 78 1233 61 1208 q 108 1240 114 1240 l 145 1231 q 282 960 248 1070 "},"&":{"x_min":59,"x_max":601,"ha":575,"o":"m 601 50 q 587 15 601 31 q 557 0 573 0 l 505 13 q 430 122 491 50 q 360 52 407 98 q 203 -15 286 -15 q 88 55 126 -15 q 59 195 59 111 q 181 484 59 352 q 141 624 141 581 q 232 736 141 682 q 374 785 315 785 q 402 780 384 785 q 428 775 421 775 q 476 695 476 744 q 391 547 476 643 q 299 440 301 447 q 354 352 317 404 q 419 277 394 295 q 450 415 450 343 q 494 461 450 436 q 544 413 544 449 q 510 278 544 366 q 478 201 477 190 q 573 82 478 180 l 583 82 q 601 50 601 63 m 379 684 q 354 721 379 721 q 272 686 316 721 q 228 615 228 652 q 236 580 228 599 l 249 542 l 257 542 q 283 563 267 542 q 379 684 379 636 m 369 186 l 369 202 q 225 401 317 266 q 166 305 189 386 q 149 187 149 243 q 221 57 149 57 l 232 61 q 261 72 238 63 q 369 186 309 88 "},"I":{"x_min":65.21875,"x_max":187.40625,"ha":189,"o":"m 187 49 q 160 9 187 33 l 146 10 l 129 4 q 87 120 87 4 q 87 185 87 142 q 87 251 87 229 l 87 376 q 76 592 87 448 q 65 809 65 737 l 69 822 l 87 836 q 104 840 92 836 q 124 844 116 844 q 167 802 160 844 l 167 740 q 167 508 167 662 q 167 277 167 355 l 167 165 q 177 107 167 145 q 187 49 187 69 "},"Ð":{"x_min":-49,"x_max":389,"ha":375,"o":"m 63 376 q 21 371 49 371 q -49 423 -49 371 q -21 465 -49 438 q 58 460 25 460 q 58 644 58 576 q 41 754 58 691 l 27 815 q 45 845 27 834 q 82 857 61 857 q 141 827 96 857 q 231 793 157 816 q 371 646 337 758 q 389 535 389 587 q 279 182 389 365 q 181 21 279 182 l 168 -6 l 115 -22 q 74 -3 90 -22 q 59 41 59 15 q 63 58 59 44 q 67 79 67 72 q 67 362 67 172 l 63 376 m 271 400 q 252 366 271 381 q 215 352 234 352 q 187 358 204 352 q 165 366 171 365 q 143 368 159 368 q 157 125 143 221 q 255 311 209 186 q 302 516 302 436 q 280 654 302 605 q 180 746 253 719 q 138 760 142 760 q 136 740 136 753 q 136 444 136 575 q 161 439 158 439 q 190 451 174 439 q 208 447 204 448 q 224 451 211 448 q 254 433 238 452 q 271 400 271 414 "},"G":{"x_min":23,"x_max":570.625,"ha":548,"o":"m 570 531 q 500 483 570 483 q 439 446 439 483 q 456 265 439 385 q 473 83 473 144 q 470 -11 473 2 q 419 -80 460 -59 q 152 81 270 -40 q 23 363 23 216 q 141 641 23 511 q 356 863 141 641 q 376 864 362 860 q 394 869 390 869 q 423 854 410 869 q 437 823 437 839 q 353 740 437 810 q 198 580 251 652 q 116 349 116 466 q 198 148 116 242 q 376 20 269 66 l 381 23 q 386 113 386 72 q 352 426 386 290 l 347 431 q 303 409 339 428 q 254 397 280 397 q 208 430 208 397 q 345 512 208 449 q 517 575 482 575 q 552 561 535 575 q 570 531 570 548 "},"`":{"x_min":60,"x_max":281.859375,"ha":284,"o":"m 281 675 l 277 662 q 241 651 243 651 q 167 737 219 651 q 107 843 137 789 q 60 916 60 906 q 77 948 60 923 q 107 955 113 955 l 144 946 q 281 675 247 785 "},"r":{"x_min":17.859375,"x_max":553.9375,"ha":529,"o":"m 553 44 q 509 -6 544 -6 q 491 -1 506 -6 q 475 -1 480 0 q 439 120 455 6 q 393 323 419 266 q 244 428 345 428 q 206 421 217 428 l 206 414 q 219 220 206 349 q 232 26 232 91 q 187 -22 232 8 l 179 -22 q 126 3 149 -22 l 126 139 q 126 268 126 182 q 126 396 126 353 l 104 406 q 78 448 95 420 l 85 476 l 116 494 q 118 648 118 507 q 112 753 118 718 l 107 755 q 66 735 89 742 l 55 739 q 29 748 40 738 q 17 774 17 759 q 77 825 17 795 q 162 856 137 856 q 326 839 270 856 q 426 724 426 810 q 367 599 426 664 q 260 502 356 588 q 335 482 332 484 q 400 451 381 469 q 483 328 454 402 q 521 187 502 278 q 553 44 541 82 m 335 716 q 325 748 333 721 q 304 770 317 757 q 234 787 276 787 q 204 781 218 787 l 198 725 l 198 614 q 203 555 198 591 q 282 625 238 575 q 335 716 335 684 "},"¿":{"x_min":39,"x_max":433,"ha":415,"o":"m 39 116 q 100 260 39 194 q 214 352 119 280 q 276 433 276 400 q 250 518 276 466 q 225 574 225 570 q 264 621 225 621 q 335 549 305 621 q 360 440 360 491 q 298 325 360 373 q 185 242 260 298 q 124 120 124 191 q 218 58 124 58 l 223 63 q 241 60 231 60 q 341 170 304 60 l 340 181 q 380 238 340 237 q 419 228 368 238 q 433 196 433 199 q 356 35 433 88 q 180 -10 291 -10 q 86 27 130 -10 q 39 116 39 66 m 164 720 q 212 778 164 754 q 248 764 227 778 q 278 720 278 764 q 245 673 278 704 q 229 670 237 673 q 195 681 218 668 q 182 677 191 678 q 168 693 174 689 q 164 720 164 710 "},"ý":{"x_min":36.3125,"x_max":500.890625,"ha":467,"o":"m 500 858 q 415 612 495 839 q 342 362 361 462 q 335 290 345 341 q 355 0 355 180 q 322 -48 355 -23 q 288 -50 301 -45 q 250 -15 259 -41 q 250 38 250 24 l 250 245 q 36 814 250 294 l 40 839 q 88 858 73 858 q 127 837 119 858 q 137 788 130 820 q 277 459 166 655 q 392 842 392 748 q 409 882 392 866 q 450 898 427 898 q 500 858 485 898 m 443 1176 q 374 1072 420 1141 q 323 979 349 1024 q 263 911 285 911 q 228 920 258 911 l 221 935 q 359 1206 248 1028 q 397 1215 376 1215 q 427 1208 392 1215 q 443 1176 435 1198 "},"x":{"x_min":81.5,"x_max":547,"ha":510,"o":"m 544 31 q 547 19 547 25 q 472 -20 547 -3 q 389 171 453 -3 q 312 386 363 242 l 302 379 q 254 232 290 329 q 205 83 218 135 q 132 -37 177 -37 q 81 15 81 -37 q 126 90 81 -49 q 189 307 158 198 q 252 519 208 369 q 171 708 256 529 q 84 920 84 892 q 130 952 84 941 l 168 938 q 292 647 220 773 q 382 912 382 877 q 398 944 382 927 q 430 961 415 961 l 458 958 l 474 912 q 408 716 457 863 q 351 532 351 545 q 439 291 351 516 q 544 31 522 80 "},"è":{"x_min":18,"x_max":532,"ha":501,"o":"m 532 469 q 513 430 532 449 q 475 405 494 410 q 391 433 413 433 l 222 433 l 222 405 q 260 180 222 326 q 363 8 306 8 q 402 89 390 8 q 411 202 411 142 q 402 247 411 217 q 394 291 394 277 q 417 337 394 299 l 438 341 l 445 348 q 456 347 450 347 q 472 351 464 347 q 505 292 505 326 q 484 83 505 187 q 394 -71 454 -65 l 383 -80 q 276 -46 349 -76 q 147 419 147 121 q 74 459 74 438 l 78 476 q 137 512 101 485 l 137 533 q 147 641 137 565 q 147 749 147 710 l 147 781 l 123 784 q 103 776 118 784 q 80 769 88 769 q 71 770 75 769 l 61 763 l 46 766 l 18 804 l 18 816 q 67 843 39 824 l 84 841 q 148 853 88 841 l 168 873 l 216 878 q 259 864 231 864 q 323 873 281 864 q 386 883 364 883 l 404 876 q 423 855 406 870 q 440 830 440 839 l 423 800 q 358 800 401 800 q 291 800 315 800 q 227 788 240 800 q 227 567 227 601 l 227 506 q 417 502 273 502 q 488 522 437 502 q 517 503 503 522 q 532 469 532 485 m 288 976 l 284 963 q 247 952 250 952 q 174 1038 225 952 q 114 1144 144 1090 q 67 1217 67 1207 q 84 1249 67 1224 q 114 1256 119 1256 l 151 1247 q 288 976 254 1086 "},"Ø":{"x_min":52,"x_max":520,"ha":519,"o":"m 520 428 l 496 254 q 291 -3 457 -3 q 252 0 272 -3 q 245 -69 245 -15 q 238 -116 245 -97 l 201 -134 q 148 -94 148 -123 q 158 -30 148 -72 q 169 33 169 10 q 130 84 169 49 q 52 359 52 184 q 99 627 52 458 q 205 866 149 803 q 294 888 217 878 q 350 855 331 878 l 359 855 q 410 984 371 902 l 437 991 q 483 966 483 991 q 461 895 483 960 q 435 809 438 824 q 520 428 520 631 m 440 423 q 411 667 440 528 l 401 673 q 262 77 262 165 l 268 70 q 294 68 289 68 q 411 210 372 68 q 440 423 440 315 m 342 781 q 263 803 297 807 q 171 588 210 731 q 135 355 135 455 q 183 152 135 238 l 192 156 q 274 495 200 220 q 342 781 342 756 "},"μ":{"x_min":43.53125,"x_max":605,"ha":576,"o":"m 605 167 q 498 -20 605 -20 q 418 38 458 -20 q 371 131 406 57 q 336 63 359 107 q 280 20 314 20 q 194 51 224 20 q 138 135 185 61 l 138 49 l 138 -46 q 142 -61 138 -52 q 147 -74 147 -70 q 127 -114 147 -99 q 82 -130 108 -130 l 58 -120 q 51 -36 51 -103 l 58 290 q 55 421 58 285 q 43 458 43 437 q 67 501 43 482 q 116 520 92 520 q 165 489 154 520 q 200 257 174 401 q 265 110 235 124 q 328 443 328 178 q 341 484 328 466 q 376 503 355 503 l 406 497 q 425 471 416 483 q 431 440 431 461 q 440 249 431 315 q 500 71 455 144 q 521 154 513 75 q 562 227 521 227 q 605 167 605 227 "},"h":{"x_min":11.328125,"x_max":462.921875,"ha":458,"o":"m 462 407 l 460 383 q 426 229 426 337 q 434 108 426 188 q 442 -12 442 27 l 430 -36 l 409 -50 l 400 -50 q 345 20 345 -50 q 345 61 345 34 q 346 100 346 87 q 346 357 346 214 l 322 357 q 256 350 298 357 q 193 339 200 339 l 187 330 l 187 295 q 222 -34 187 94 q 181 -89 204 -89 l 158 -89 l 117 -48 q 120 -16 120 -36 q 99 313 120 112 l 72 307 l 63 309 q 52 307 57 307 q 11 357 30 307 q 88 389 64 389 l 93 395 q 93 581 93 457 q 93 767 93 705 q 99 880 93 845 q 145 894 107 883 l 174 869 l 173 773 q 173 411 173 630 l 188 405 l 222 405 q 281 415 231 405 q 340 430 331 425 q 348 455 347 441 q 347 482 349 466 q 347 509 347 500 l 347 721 q 362 933 347 848 l 375 944 q 386 943 379 943 q 413 948 397 943 l 433 927 q 433 766 433 854 l 433 605 l 433 459 q 462 407 462 435 "},".":{"x_min":71,"x_max":230,"ha":219,"o":"m 230 87 q 207 35 230 59 q 157 11 185 11 q 98 39 125 11 q 71 101 71 67 q 151 168 71 168 q 170 156 147 168 q 212 133 204 140 q 230 87 230 116 "},";":{"x_min":71,"x_max":260,"ha":260,"o":"m 230 656 q 207 604 230 628 q 157 580 185 580 q 98 608 125 580 q 71 670 71 636 q 151 737 71 737 q 170 725 147 737 q 212 702 204 709 q 230 656 230 685 m 260 226 q 230 98 260 162 q 138 20 193 20 q 100 40 104 20 l 106 53 q 174 213 174 95 q 170 233 174 223 q 115 238 151 233 q 81 292 81 276 q 110 368 81 332 q 178 405 140 405 q 217 392 182 405 q 240 357 227 380 q 260 226 260 310 "},"f":{"x_min":20,"x_max":530,"ha":499,"o":"m 530 876 q 474 820 530 831 l 462 833 l 445 836 q 334 815 429 836 q 230 788 239 794 l 230 751 q 234 666 230 723 q 239 581 239 609 q 260 575 249 575 q 394 597 304 575 l 412 587 q 427 548 427 555 q 387 503 427 531 q 360 508 378 501 q 337 515 342 515 q 294 511 322 515 q 251 508 266 508 l 242 501 l 242 472 q 261 211 242 379 q 285 -34 285 24 q 269 -70 285 -55 q 232 -86 252 -86 q 180 -43 206 -86 l 179 -12 q 179 158 179 44 q 179 329 179 272 q 165 481 179 416 q 125 493 127 493 q 102 524 102 504 l 104 538 q 163 566 142 552 l 163 626 q 152 770 163 672 l 141 773 l 107 762 l 95 747 l 61 743 q 35 754 50 743 q 20 776 20 766 q 77 824 20 816 q 149 842 144 834 l 144 870 l 152 885 q 199 890 183 890 l 224 878 l 231 856 l 242 856 q 367 889 280 856 q 474 922 455 922 q 516 912 490 922 q 530 876 530 883 "},"“":{"x_min":44,"x_max":398,"ha":398,"o":"m 398 580 q 376 554 398 566 q 339 543 354 543 q 291 583 312 543 q 293 601 293 591 q 267 749 293 623 q 234 894 242 876 q 250 920 237 908 q 275 933 263 933 l 305 933 q 339 876 339 916 q 365 697 339 809 q 383 634 367 687 q 398 580 398 587 m 206 611 q 188 581 206 594 q 154 568 171 568 q 121 573 151 569 q 105 605 106 595 q 94 697 101 647 q 64 810 90 713 q 44 919 44 887 l 46 924 q 107 943 80 943 q 143 919 127 943 q 142 896 142 908 q 158 787 142 869 q 185 674 174 710 q 197 644 186 672 q 206 611 206 624 "},"A":{"x_min":20,"x_max":544.5,"ha":536,"o":"m 544 14 q 524 -21 544 -6 q 483 -37 504 -37 l 462 -32 l 439 -1 l 441 15 q 416 182 445 62 l 376 352 l 326 352 q 200 340 272 352 q 177 190 177 326 q 177 28 177 89 q 159 -6 177 8 q 120 -21 141 -21 q 69 22 69 -21 q 89 166 69 71 q 110 311 110 262 l 107 328 q 88 325 101 330 q 70 321 74 321 q 35 335 50 321 q 20 371 20 350 q 119 402 50 402 q 176 664 125 410 q 226 930 227 917 l 243 951 l 299 969 q 347 939 335 958 q 359 880 359 921 q 450 437 359 846 l 488 448 l 522 438 q 536 395 536 416 l 531 378 q 480 352 514 356 l 465 356 l 464 346 q 504 174 464 300 q 544 14 544 47 m 362 422 l 362 436 q 285 787 362 502 q 241 594 276 759 q 207 411 207 429 q 223 410 213 411 l 238 410 q 362 422 266 410 "},"6":{"x_min":59,"x_max":469,"ha":460,"o":"m 469 235 q 419 49 469 133 q 268 -50 361 -50 q 105 30 159 -50 q 59 215 59 98 q 128 589 59 306 q 255 898 205 898 q 314 866 314 898 q 259 745 314 863 q 205 583 205 627 l 207 565 q 402 460 329 565 q 469 235 469 365 m 389 228 q 344 410 389 332 q 194 505 289 505 q 161 384 181 492 q 141 251 141 282 l 141 169 q 179 63 141 105 q 281 22 218 22 q 363 102 330 22 q 389 228 389 166 "},"O":{"x_min":42,"x_max":464,"ha":464,"o":"m 464 405 q 412 140 464 282 q 251 -39 346 -39 q 85 121 144 -39 q 42 371 42 241 q 65 618 42 445 q 114 847 90 817 q 154 863 124 863 q 295 853 269 863 q 421 653 370 824 q 464 405 464 513 m 381 402 q 340 640 381 522 q 194 795 287 795 q 145 586 165 769 q 129 353 129 436 q 157 176 129 269 q 261 51 195 51 l 277 51 q 352 218 319 98 q 381 402 381 324 "},"n":{"x_min":73,"x_max":531.46875,"ha":523,"o":"m 531 912 q 492 619 492 797 q 492 318 492 539 q 480 173 492 269 q 469 29 469 78 q 449 -14 469 3 q 401 -33 429 -33 l 365 -23 q 355 14 358 -9 q 351 51 353 44 q 250 330 342 89 q 148 586 158 571 l 148 489 q 158 279 148 417 q 172 68 172 136 q 178 36 172 57 q 185 5 185 15 q 167 -32 185 -14 q 130 -51 150 -51 q 95 -33 118 -51 q 73 -3 73 -16 q 73 49 73 14 q 74 103 74 85 q 74 415 74 207 q 74 728 74 624 q 80 800 74 783 q 134 831 90 831 q 164 810 139 831 q 271 508 197 705 l 384 210 q 425 901 425 432 q 455 964 425 944 l 484 964 l 523 940 l 531 912 "},"3":{"x_min":47.71875,"x_max":459,"ha":454,"o":"m 459 258 q 371 64 459 141 q 165 -12 283 -12 q 141 0 153 -12 q 129 26 129 13 q 165 59 129 54 q 240 70 201 65 q 325 124 292 84 q 369 256 369 180 q 344 349 369 305 q 269 395 314 403 q 234 400 262 400 q 218 395 228 400 q 204 390 208 390 q 155 405 182 390 q 128 442 128 421 l 131 472 q 191 500 174 500 q 284 592 227 500 q 339 721 339 681 q 300 755 339 748 l 239 755 q 199 743 210 755 l 189 746 q 147 718 165 746 q 92 690 129 690 q 63 704 78 690 q 47 732 47 718 q 111 791 47 757 q 204 826 175 826 l 273 826 q 376 816 351 826 q 430 733 430 796 q 298 472 430 627 q 418 395 382 440 q 459 258 459 344 "},"9":{"x_min":42,"x_max":520,"ha":515,"o":"m 520 556 q 479 251 520 497 q 404 -23 432 0 l 368 -35 q 336 -19 352 -35 q 320 13 320 -3 q 358 135 320 30 q 397 284 397 241 l 394 291 q 219 215 338 215 q 88 277 138 215 q 42 419 42 335 q 129 702 42 551 q 347 872 227 872 l 411 845 l 427 849 q 483 736 464 812 q 505 605 491 704 l 520 591 l 520 556 m 342 807 l 336 807 q 190 655 262 807 q 126 436 126 522 q 248 286 126 286 q 362 379 303 286 q 418 526 418 466 q 364 777 418 706 l 342 807 "},"l":{"x_min":79,"x_max":338.671875,"ha":316,"o":"m 338 62 q 257 12 338 36 q 144 -30 160 -15 l 112 -35 q 89 -18 100 -35 q 79 14 79 -1 q 79 838 79 341 l 111 864 l 149 868 l 180 838 q 159 428 159 760 q 159 307 159 395 q 159 184 159 232 q 167 65 159 115 l 173 64 q 239 86 190 64 q 291 108 288 108 q 322 92 306 108 q 338 62 338 77 "},"¤":{"x_min":26,"x_max":537,"ha":513,"o":"m 537 110 q 473 -1 537 40 q 345 -39 417 -39 q 176 39 232 -39 q 103 221 146 83 l 82 221 q 50 232 65 219 q 36 260 36 244 q 63 291 36 284 q 108 308 98 301 l 108 399 q 99 401 103 401 q 86 396 91 401 q 26 439 26 412 l 30 460 l 82 487 l 97 482 l 135 495 q 198 663 165 613 q 328 774 238 728 q 440 745 429 749 q 504 651 504 717 q 486 624 504 638 q 454 611 468 611 q 422 634 437 611 q 411 676 407 658 q 354 719 392 719 q 274 639 309 719 q 225 521 257 600 l 226 506 l 233 505 q 272 512 247 505 q 310 519 297 519 q 323 516 317 519 q 362 535 343 535 q 425 498 425 535 q 407 448 425 473 q 366 428 389 424 q 313 444 342 444 q 210 430 263 444 q 192 324 203 414 l 195 319 q 319 334 236 324 q 338 346 319 334 q 366 358 357 358 q 406 341 385 358 q 428 306 428 324 q 395 267 428 276 q 339 265 384 265 q 268 255 313 265 q 199 244 219 244 l 194 239 q 227 110 194 177 q 321 33 267 33 q 365 37 336 33 q 410 42 395 42 q 449 99 449 81 q 446 129 449 109 q 444 159 444 149 q 454 191 444 176 q 482 207 465 207 q 520 195 505 207 l 537 110 "},"4":{"x_min":41.75,"x_max":463.03125,"ha":459,"o":"m 463 269 q 417 217 463 238 l 398 226 l 382 224 q 380 103 380 171 l 380 -15 q 363 -47 380 -31 q 332 -63 346 -63 q 282 5 282 -63 l 293 12 l 293 263 q 204 294 272 283 q 106 304 147 304 q 62 322 83 304 q 41 364 41 340 q 54 414 41 364 q 60 527 60 468 q 60 641 60 569 l 60 755 q 87 786 60 772 q 121 784 114 786 q 145 765 133 780 q 145 429 145 644 q 197 366 145 393 q 284 346 242 346 l 299 347 q 299 790 299 562 q 318 809 299 799 q 349 820 337 820 q 392 782 392 803 q 392 556 392 719 q 392 330 392 413 q 423 318 411 318 q 431 319 427 318 q 463 269 463 295 "},"p":{"x_min":29.796875,"x_max":464,"ha":448,"o":"m 464 648 l 464 603 q 219 307 464 490 l 219 300 q 225 234 219 278 q 232 169 232 191 q 264 -23 232 69 l 256 -51 q 201 -72 222 -72 q 159 5 159 -72 q 152 126 159 50 q 143 247 143 216 q 90 307 90 268 q 121 351 90 328 l 121 360 q 121 712 121 389 l 106 717 l 96 717 l 84 710 q 29 746 29 715 q 99 794 29 777 q 195 807 150 807 q 377 786 321 807 q 464 648 464 750 m 377 658 q 363 701 377 672 q 334 722 353 710 q 263 741 309 726 l 204 735 l 204 697 q 204 548 204 636 q 204 398 204 421 l 219 396 q 332 507 307 473 q 377 658 377 569 "},"à":{"x_min":27,"x_max":589,"ha":580,"o":"m 589 314 l 576 284 q 528 253 549 272 l 521 255 q 516 242 516 255 q 550 109 516 199 q 585 -21 585 20 q 570 -59 585 -42 q 536 -77 556 -77 q 475 30 475 -77 q 450 151 475 48 q 419 261 425 254 l 408 261 q 303 250 368 261 q 197 237 217 237 q 167 132 183 224 q 155 19 155 60 q 110 -17 119 -17 q 74 -5 91 -17 q 57 24 57 6 q 79 114 57 50 q 101 202 101 178 l 101 223 l 73 223 q 46 239 66 223 q 27 263 27 256 q 59 301 27 289 q 114 306 84 309 l 119 316 q 165 495 141 371 q 206 678 193 634 q 252 836 252 831 q 245 928 252 867 q 268 948 253 946 q 295 955 290 952 l 333 938 q 413 647 367 836 q 490 356 462 443 q 502 352 492 352 l 522 361 q 529 359 526 359 q 539 365 534 359 q 589 314 589 353 m 404 334 q 363 521 404 354 q 310 729 330 654 q 202 308 215 430 q 303 316 240 308 l 401 328 q 404 334 402 330 m 328 1061 l 323 1048 q 287 1037 289 1037 q 213 1123 265 1037 q 153 1229 183 1175 q 106 1302 106 1292 q 123 1334 106 1309 q 153 1341 159 1341 l 190 1332 q 328 1061 293 1171 "},"Ü":{"x_min":80,"x_max":420,"ha":438,"o":"m 420 758 q 420 693 420 736 q 420 629 420 651 l 420 405 q 215 -21 420 58 q 80 253 80 30 q 80 418 80 308 q 80 491 80 465 q 80 669 80 551 q 80 847 80 787 l 97 869 l 130 880 q 168 863 162 869 q 180 827 180 854 q 170 692 180 782 q 160 557 160 602 l 160 355 q 173 198 160 287 q 223 65 193 76 q 319 264 295 130 q 334 493 334 344 q 326 630 334 539 q 319 768 319 722 q 338 798 319 783 q 371 814 356 814 q 404 795 389 814 q 420 758 420 776 m 385 973 q 365 931 385 948 q 322 915 346 915 q 269 953 289 915 q 256 997 256 977 q 274 1029 256 1013 q 308 1046 292 1046 q 359 1023 334 1046 q 385 973 385 1000 m 222 998 q 155 926 222 926 q 118 953 137 926 q 99 999 99 980 q 147 1054 99 1040 q 165 1061 172 1061 q 188 1048 174 1061 q 210 1029 199 1047 q 222 998 222 1011 "},"ó":{"x_min":35,"x_max":514,"ha":515,"o":"m 514 385 q 452 103 514 244 q 258 -71 376 -71 q 77 102 137 -71 q 35 378 35 226 q 108 804 35 625 q 119 850 113 828 q 148 872 128 878 l 171 883 l 218 871 q 271 878 229 878 q 466 685 401 878 q 514 385 514 546 m 426 398 q 391 648 426 536 q 239 809 342 809 q 146 639 182 809 q 120 416 120 514 l 120 320 q 157 128 120 227 q 277 4 203 4 q 390 169 344 4 q 426 398 426 296 m 439 1242 q 370 1138 416 1207 q 319 1045 345 1090 q 259 977 281 977 q 224 986 254 977 l 217 1001 q 355 1272 244 1094 q 393 1281 372 1281 q 423 1274 387 1281 q 439 1242 431 1264 "}}}
